<svg width="20" height="20" viewBox="0 0 20 20" fill="none" xmlns="http://www.w3.org/2000/svg">
<g id="Group">
<path id="Vector" d="M18.33 15.657C18.44 15.291 18.5 14.902 18.5 14.5V5.5C18.5 4.43913 18.0786 3.42172 17.3284 2.67157C16.5783 1.92143 15.5609 1.5 14.5 1.5H5.5C4.43913 1.5 3.42172 1.92143 2.67157 2.67157C1.92143 3.42172 1.5 4.43913 1.5 5.5V14.57C1.51835 15.6187 1.94787 16.6182 2.69604 17.3533C3.4442 18.0884 4.45115 18.5002 5.5 18.5H14.5L14.617 18.498M18.33 15.657L18.242 15.553L15.776 12.577C15.5889 12.3513 15.3544 12.1694 15.0892 12.0443C14.824 11.9193 14.5346 11.8541 14.2414 11.8533C13.9482 11.8525 13.6584 11.9162 13.3925 12.0399C13.1267 12.1636 12.8913 12.3442 12.703 12.569L11.391 14.135L11.177 14.396M18.33 15.657C18.0874 16.4603 17.5984 17.166 16.932 17.676C16.2657 18.1861 15.4558 18.4736 14.617 18.498M11.177 14.396L14.524 18.392L14.617 18.498M11.177 14.396L7.95 10.543C7.76228 10.319 7.52774 10.1388 7.26288 10.0152C6.99802 9.89155 6.70929 9.82749 6.417 9.82749C6.12471 9.82749 5.83598 9.89155 5.57112 10.0152C5.30626 10.1388 5.07172 10.319 4.884 10.543L1.678 14.37L1.501 14.571" stroke="#FBFCFE" stroke-width="1.5" stroke-linecap="round" stroke-linejoin="round"/>
<path id="Vector_2" d="M13.0909 8.40625C13.9194 8.40625 14.5909 7.73468 14.5909 6.90625C14.5909 6.07782 13.9194 5.40625 13.0909 5.40625C12.2625 5.40625 11.5909 6.07782 11.5909 6.90625C11.5909 7.73468 12.2625 8.40625 13.0909 8.40625Z" fill="#FBFCFE"/>
</g>
</svg>
