<svg width="83" height="84" viewBox="0 0 83 84" fill="none" xmlns="http://www.w3.org/2000/svg">
<path d="M14.9607 75.3578L3.11203 42.0568C1.25033 36.8244 2.91814 30.9873 7.26313 27.5283L33.6787 6.49919C38.4481 2.70234 45.2153 2.72962 49.954 6.56479L75.7444 27.4381C80.0805 30.9475 81.6944 36.832 79.7552 42.0623L67.3511 75.5191C65.4612 80.6168 60.5986 84 55.1619 84H27.2085C21.7089 84 16.8043 80.5393 14.9607 75.3578Z" fill="#6BCFF1"/>
<path opacity="0.5" d="M60.6108 28.9394C58.8069 30.1328 57.651 27.2578 51.769 23.7152C47.5618 21.1813 47.2053 19.6357 48.3251 17.5545C49.445 15.4734 52.6513 15.6035 56.2044 18.3826C60.952 22.0961 62.4147 27.7461 60.6108 28.9394Z" fill="#FBFCFE"/>
<path opacity="0.25" d="M40.8965 13.9861C41.301 17.3831 35.3875 20.6605 28.8653 26.1257C23.8778 30.3049 17.5446 37.075 15.3094 35.4265C12.9966 33.7208 20.7542 23.5798 25.2696 19.7963C33.2969 13.0699 40.492 10.5892 40.8965 13.9861Z" fill="#FBFCFE"/>
<path opacity="0.35" d="M64.9126 53.133C67.6147 54.426 68.4892 62.3039 60.1241 72.286C51.7589 82.2681 46.8231 79.2088 46.822 77.6063C46.821 76.0038 47.9151 78.7205 56.9326 68.5611C65.1927 59.255 62.6858 52.0675 64.9126 53.133Z" fill="#FBFCFE"/>
</svg>
