<svg width="33" height="32" viewBox="0 0 33 32" fill="none" xmlns="http://www.w3.org/2000/svg">
<g id="Angry-face (&#231;&#148;&#159;&#230;&#176;&#148;)">
<path id="Union" fill-rule="evenodd" clip-rule="evenodd" d="M16.4997 1.33301C8.39949 1.33301 1.83301 7.89949 1.83301 15.9997C1.83301 24.0999 8.39949 30.6663 16.4997 30.6663C24.5999 30.6663 31.1663 24.0999 31.1663 15.9997C31.1663 7.89949 24.5999 1.33301 16.4997 1.33301ZM4.49967 15.9997C4.49967 9.37225 9.87225 3.99967 16.4997 3.99967C23.1271 3.99967 28.4997 9.37225 28.4997 15.9997C28.4997 22.6271 23.1271 27.9997 16.4997 27.9997C9.87225 27.9997 4.49967 22.6271 4.49967 15.9997ZM16.4998 19.333C14.4427 19.333 12.9724 20.166 12.0306 21.0031C11.5654 21.4167 11.2288 21.8304 11.0055 22.1457C10.8933 22.304 10.8082 22.4398 10.7482 22.5415C10.7182 22.5924 10.6944 22.6351 10.6765 22.668C10.6676 22.6845 10.6602 22.6986 10.6542 22.7101L10.6463 22.7254L10.6432 22.7316L10.6418 22.7343L10.6412 22.7355C10.6409 22.7361 10.6406 22.7367 11.8331 23.333L10.6406 22.7367L10.0443 23.9293L12.4294 25.1219L13.0211 23.9384L13.0213 23.9381C13.0246 23.932 13.0327 23.9173 13.0456 23.8953C13.0716 23.8512 13.1167 23.7787 13.1816 23.687C13.3124 23.5023 13.5175 23.2493 13.8023 22.9962C14.3606 22.5 15.2235 21.9997 16.4998 21.9997C17.7761 21.9997 18.639 22.5 19.1973 22.9962C19.4821 23.2493 19.6872 23.5023 19.818 23.687C19.8829 23.7787 19.9279 23.8512 19.9539 23.8953C19.9669 23.9173 19.975 23.932 19.9783 23.9381L19.9785 23.9384L20.5702 25.1219L22.9553 23.9293L22.359 22.7367L21.1665 23.333C22.359 22.7367 22.3587 22.7361 22.3584 22.7355L22.3578 22.7343L22.3564 22.7316L22.3533 22.7254L22.3454 22.7101C22.3394 22.6986 22.332 22.6845 22.3231 22.668C22.3052 22.6351 22.2814 22.5924 22.2514 22.5415C22.1914 22.4398 22.1062 22.304 21.9941 22.1457C21.7708 21.8304 21.4342 21.4167 20.9689 21.0031C20.0272 20.166 18.5568 19.333 16.4998 19.333ZM24.2886 13.2624L19.2368 15.7883L18.0443 13.4032L23.0961 10.8773L24.2886 13.2624ZM14.9553 13.4032L9.90351 10.8773L8.71094 13.2624L13.7627 15.7883L14.9553 13.4032Z" fill="#EAE9EA"/>
</g>
</svg>
