<svg width="22" height="22" viewBox="0 0 22 22" fill="none" xmlns="http://www.w3.org/2000/svg">
<g id="Group">
<path id="Vector" d="M9.29 20.961H8.39C5.142 20.961 3.517 20.961 2.508 19.936C1.499 18.911 1.5 17.261 1.5 13.961V8.961C1.5 5.661 1.5 4.011 2.51 2.987C3.517 1.96 5.142 1.96 8.39 1.96H11.343C14.592 1.96 16.49 2.016 17.499 3.04C18.509 4.066 18.499 5.66 18.499 8.96V10.147M14.945 1V3M9.945 1V3M4.945 1V3M6 14H10M6 9H14" stroke="#67B899" stroke-width="2" stroke-linecap="round" stroke-linejoin="round"/>
<path id="Vector_2" opacity="0.93" d="M19.7601 13.8786C18.8541 12.8636 18.3111 12.9246 17.7081 13.1056C17.2851 13.1656 15.8371 14.8556 15.2331 15.3956C14.2421 16.3736 13.2461 17.3816 13.1811 17.5136C12.9931 17.8186 12.8191 18.3586 12.7341 18.9626C12.5771 19.8686 12.3511 20.8876 12.6371 20.9756C12.9231 21.0636 13.7241 20.8956 14.6291 20.7626C15.2331 20.6526 15.6551 20.5326 15.9571 20.3516C16.3801 20.0976 17.1641 19.2046 18.5171 17.8756C19.3641 16.9826 20.1821 16.3656 20.4241 15.7626C20.6651 14.8566 20.3041 14.3736 19.7601 13.8786Z" stroke="#67B899" stroke-width="2" stroke-linecap="round" stroke-linejoin="round"/>
</g>
</svg>
