<svg width="42" height="46" viewBox="0 0 42 46" fill="none" xmlns="http://www.w3.org/2000/svg">
<path d="M-0.00283772 41.853C-0.00283783 44.1767 1.88575 46.0827 4.19721 45.8449C8.60841 45.3912 12.9265 44.2247 16.9805 42.3824C22.3142 39.9585 27.0674 36.421 30.9204 32.0075C34.7735 27.5941 37.6372 22.407 39.319 16.7949C40.5974 12.5294 41.1705 8.09341 41.0247 3.66134C40.9483 1.33894 38.8049 -0.275135 36.5025 0.0384634C34.2001 0.352058 32.6165 2.47659 32.6315 4.8002C32.6523 8.03594 32.1919 11.2648 31.2585 14.3793C29.9214 18.841 27.6447 22.9648 24.5815 26.4735C21.5183 29.9822 17.7395 32.7946 13.4991 34.7216C10.539 36.0668 7.40187 36.9588 4.19292 37.3748C1.88855 37.6735 -0.00283762 39.5293 -0.00283772 41.853Z" fill="#C0E9FF"/>
</svg>
