<svg width="120" height="66" viewBox="0 0 120 66" fill="none" xmlns="http://www.w3.org/2000/svg">
<g id="&#232;&#175;&#173;&#233;&#159;&#179;">
<g id="&#233;&#159;&#179;&#230;&#179;&#162;">
<path id="path525321" d="M12 26.7344C11.4696 26.7344 10.9608 27.0153 10.5858 27.5154C10.2107 28.0155 10 28.6938 10 29.401V40.0677C10 40.775 10.2107 41.4532 10.5858 41.9533C10.9608 42.4534 11.4696 42.7344 12 42.7344C12.5304 42.7344 13.0392 42.4534 13.4142 41.9533C13.7893 41.4532 14 40.775 14 40.0677V29.401C14 28.6938 13.7893 28.0155 13.4142 27.5154C13.0392 27.0153 12.5304 26.7344 12 26.7344Z" fill="#67B899" fill-opacity="0.4"/>
<path id="path525323" d="M24 16.0391C23.4696 16.0391 22.9608 16.31 22.5858 16.7922C22.2107 17.2745 22 17.9285 22 18.6105V49.4676C22 50.1496 22.2107 50.8037 22.5858 51.2859C22.9608 51.7681 23.4696 52.0391 24 52.0391C24.5304 52.0391 25.0392 51.7681 25.4142 51.2859C25.7893 50.8037 26 50.1496 26 49.4676V18.6105C26 17.9285 25.7893 17.2745 25.4142 16.7922C25.0392 16.31 24.5304 16.0391 24 16.0391Z" fill="#67B899" fill-opacity="0.4"/>
<path id="path525325" d="M36 21.3828C35.4696 21.3828 34.9608 21.5393 34.5858 21.8179C34.2107 22.0965 34 22.4744 34 22.8684V34.7532C34 35.1472 34.2107 35.5251 34.5858 35.8037C34.9608 36.0823 35.4696 36.2388 36 36.2388C36.5304 36.2388 37.0392 36.0823 37.4142 35.8037C37.7893 35.5251 38 35.1472 38 34.7532V22.8684C38 22.4744 37.7893 22.0965 37.4142 21.8179C37.0392 21.5393 36.5304 21.3828 36 21.3828Z" fill="#67B899" fill-opacity="0.4"/>
<path id="path525327" d="M48 5.34375C47.4696 5.34375 46.9608 5.63108 46.5858 6.14255C46.2107 6.65401 46 7.34771 46 8.07102V62.6165C46 63.3398 46.2107 64.0335 46.5858 64.545C46.9608 65.0564 47.4696 65.3438 48 65.3438C48.5304 65.3438 49.0392 65.0564 49.4142 64.545C49.7893 64.0335 50 63.3398 50 62.6165V8.07102C50 7.34771 49.7893 6.65401 49.4142 6.14255C49.0392 5.63108 48.5304 5.34375 48 5.34375Z" fill="#67B899" fill-opacity="0.4"/>
<path id="path525329" d="M60 17.8203C59.4696 17.8203 58.9608 18.0865 58.5858 18.5603C58.2107 19.034 58 19.6766 58 20.3466V47.294C58 47.964 58.2107 48.6066 58.5858 49.0804C58.9608 49.5541 59.4696 49.8203 60 49.8203C60.5304 49.8203 61.0392 49.5541 61.4142 49.0804C61.7893 48.6066 62 47.964 62 47.294V20.3466C62 19.6766 61.7893 19.034 61.4142 18.5603C61.0392 18.0865 60.5304 17.8203 60 17.8203Z" fill="#67B899" fill-opacity="0.4"/>
<path id="path525331" d="M72 12.4688C71.4696 12.4688 70.9608 12.7469 70.5858 13.242C70.2107 13.7371 70 14.4086 70 15.1087V53.8288C70 54.5289 70.2107 55.2004 70.5858 55.6955C70.9608 56.1906 71.4696 56.4688 72 56.4688C72.5304 56.4688 73.0392 56.1906 73.4142 55.6955C73.7893 55.2004 74 54.5289 74 53.8288V15.1087C74 14.4086 73.7893 13.7371 73.4142 13.242C73.0392 12.7469 72.5304 12.4688 72 12.4688Z" fill="#67B899" fill-opacity="0.4"/>
<path id="path525333" d="M108 23.1719C108.53 23.1719 109.039 23.4393 109.414 23.9154C109.789 24.3914 110 25.0371 110 25.7103V42.6334C110 43.3067 109.789 43.9523 109.414 44.4284C109.039 44.9044 108.53 45.1719 108 45.1719C107.47 45.1719 106.961 44.9044 106.586 44.4284C106.211 43.9523 106 43.3067 106 42.6334V25.7103C106 25.0371 106.211 24.3914 106.586 23.9154C106.961 23.4393 107.47 23.1719 108 23.1719Z" fill="#67B899" fill-opacity="0.4"/>
<path id="path525335" d="M96 16.9297C96.5304 16.9297 97.0392 17.1825 97.4142 17.6326C97.7893 18.0827 98 18.6932 98 19.3297V46.5297C98 47.1662 97.7893 47.7767 97.4142 48.2267C97.0392 48.6768 96.5304 48.9297 96 48.9297C95.4696 48.9297 94.9608 48.6768 94.5858 48.2267C94.2107 47.7767 94 47.1662 94 46.5297V19.3297C94 18.6932 94.2107 18.0827 94.5858 17.6326C94.9608 17.1825 95.4696 16.9297 96 16.9297Z" fill="#67B899" fill-opacity="0.4"/>
<path id="path525337" d="M84 0C84.5304 0 85.0392 0.267442 85.4142 0.743496C85.7893 1.21955 86 1.86522 86 2.53846V63.4615C86 64.1348 85.7893 64.7804 85.4142 65.2565C85.0392 65.7326 84.5304 66 84 66C83.4696 66 82.9608 65.7326 82.5858 65.2565C82.2107 64.7804 82 64.1348 82 63.4615V2.53846C82 1.86522 82.2107 1.21955 82.5858 0.743496C82.9608 0.267442 83.4696 0 84 0Z" fill="#67B899" fill-opacity="0.4"/>
</g>
</g>
</svg>
