<svg width="33" height="32" viewBox="0 0 33 32" fill="none" xmlns="http://www.w3.org/2000/svg">
<g id="Emotion-unhappy (&#228;&#184;&#141;&#229;&#188;&#128;&#229;&#191;&#131;)">
<path id="Union" fill-rule="evenodd" clip-rule="evenodd" d="M16.8747 1.33301C8.77449 1.33301 2.20801 7.89949 2.20801 15.9997C2.20801 24.0999 8.77449 30.6663 16.8747 30.6663C24.9749 30.6663 31.5413 24.0999 31.5413 15.9997C31.5413 7.89949 24.9749 1.33301 16.8747 1.33301ZM4.87467 15.9997C4.87467 9.37225 10.2473 3.99967 16.8747 3.99967C23.5021 3.99967 28.8747 9.37225 28.8747 15.9997C28.8747 22.6271 23.5021 27.9997 16.8747 27.9997C10.2473 27.9997 4.87467 22.6271 4.87467 15.9997ZM22.8747 13.9997V10.6663H20.208V13.9997H22.8747ZM13.5413 10.6663V13.9997H10.8747V10.6663H13.5413ZM16.8748 16.6663C14.8177 16.6663 13.3474 17.4994 12.4056 18.3365C11.9404 18.75 11.6038 19.1637 11.3805 19.479C11.2683 19.6373 11.1832 19.7731 11.1232 19.8748C11.0932 19.9258 11.0694 19.9684 11.0515 20.0013C11.0465 20.0106 11.042 20.019 11.0379 20.0267C11.0347 20.0328 11.0318 20.0383 11.0292 20.0434L11.0213 20.0587L11.0182 20.0649L11.0168 20.0676L11.0162 20.0689C11.0159 20.0695 11.0156 20.0701 12.2081 20.6663L11.0156 20.0701L10.4193 21.2626L12.8044 22.4552L13.3961 21.2718L13.3963 21.2714C13.3996 21.2653 13.4077 21.2507 13.4206 21.2287C13.4466 21.1846 13.4917 21.112 13.5566 21.0204C13.6874 20.8356 13.8925 20.5827 14.1773 20.3296C14.7356 19.8333 15.5985 19.333 16.8748 19.333C18.1511 19.333 19.014 19.8333 19.5723 20.3296C19.8571 20.5827 20.0622 20.8356 20.193 21.0204C20.2579 21.112 20.3029 21.1846 20.3289 21.2287C20.3419 21.2507 20.35 21.2653 20.3533 21.2714L20.3535 21.2718L20.9452 22.4552L23.3303 21.2626L22.734 20.0701L21.5415 20.6663C22.734 20.0701 22.7337 20.0695 22.7334 20.0689L22.7328 20.0676L22.7314 20.0649L22.7283 20.0587L22.7204 20.0434C22.7144 20.0319 22.707 20.0178 22.6981 20.0013C22.6802 19.9684 22.6564 19.9258 22.6264 19.8748C22.5664 19.7731 22.4812 19.6373 22.3691 19.479C22.1458 19.1637 21.8092 18.75 21.3439 18.3365C20.4022 17.4994 18.9318 16.6663 16.8748 16.6663Z" fill="#EAE9EA"/>
</g>
</svg>
