<svg width="166" height="86" viewBox="0 0 166 86" fill="none" xmlns="http://www.w3.org/2000/svg">
<g id="surface1">
<path id="Vector" d="M0.0593567 74.2586C0.190613 70.9773 1.73935 67.9159 4.30202 65.8668C6.8663 63.8193 10.1918 62.9891 13.4157 63.5912C14.4427 63.7766 15.4976 63.4944 16.295 62.8185C17.0907 62.1442 17.5435 61.1484 17.5304 60.1049C17.5255 60.0245 17.5255 59.9441 17.5304 59.8654C19.2776 45.6969 30.8293 34.1699 42.6828 34.1584H42.9469C47.5637 34.1158 51.6833 31.248 53.3288 26.9298C59.5583 10.4662 75.2443 0.292648 93.867 -0.00102358C115.108 -0.324227 129.378 12.8516 136.942 34.5276C137.688 36.6653 139.754 38.4651 141.985 38.6702H142.195C155.228 38.616 165.941 49.2702 165.951 62.3165C165.961 75.0198 155.956 85.4657 143.279 85.9858V86.0071H11.3387C8.26741 86.0071 5.32904 84.7537 3.20116 82.5372C1.07162 80.3207 -0.0620575 77.3315 0.0593567 74.2586Z" fill="white"/>
<path id="Vector_2" d="M41.8076 13.2438C45.3514 13.0617 48.6392 15.0846 50.0797 18.3297C51.5201 21.5765 50.8147 25.3746 48.3061 27.8847C45.796 30.3949 42.0012 31.0987 38.761 29.6549C35.5207 28.2096 33.5044 24.9152 33.6882 21.3681C33.9162 16.9778 37.4222 13.4702 41.8076 13.2438ZM36.7775 19.2337L37.3582 19.6094C37.5305 19.721 37.6011 19.9359 37.5305 20.1278C37.3386 20.6561 37.2336 21.2123 37.2204 21.7734C37.163 24.2114 38.8381 26.3491 41.217 26.8741C43.5959 27.3991 46.0125 26.1653 46.9854 23.9292C47.9583 21.693 47.2151 19.0811 45.2103 17.6948C43.2071 16.3085 40.5033 16.5349 38.7593 18.2378C38.6018 18.3904 38.359 18.415 38.1736 18.2953L37.5863 17.9146C37.3943 17.7883 37.1548 17.7555 36.935 17.8244C36.7151 17.8933 36.5379 18.0574 36.451 18.2706C36.3148 18.6283 36.451 19.0319 36.7758 19.2337H36.7775Z" fill="white"/>
<path id="Vector_3" d="M114.088 60.9336C114.088 58.0314 117.177 55.6787 120.988 55.6787C124.799 55.6787 127.889 58.0314 127.889 60.9336C127.889 63.8359 124.799 66.1886 120.988 66.1886C117.177 66.1886 114.088 63.8359 114.088 60.9336Z" fill="#FBBC97"/>
<path id="Vector_4" d="M71.8592 60.9336C71.8592 58.0314 74.9485 55.6787 78.7597 55.6787C82.5709 55.6787 85.6602 58.0314 85.6602 60.9336C85.6602 63.8359 82.5709 66.1886 78.7597 66.1886C74.9485 66.1886 71.8592 63.8359 71.8592 60.9336Z" fill="#FBBC97"/>
<path id="Vector_5" d="M112.47 53.7474C112.641 53.5718 112.641 53.2929 112.47 53.1174L109.745 50.389C109.634 50.2775 109.571 50.1265 109.571 49.969V46.0479C109.57 43.5509 111.591 41.5264 114.085 41.5264C116.577 41.5264 118.6 43.5509 118.6 46.0479V55.3306C118.6 57.826 116.577 59.8505 114.085 59.8505C112.181 59.8489 110.485 58.6529 109.842 56.8613C109.763 56.6414 109.819 56.397 109.985 56.2329L112.47 53.7474ZM85.9184 53.7474C86.0906 53.5718 86.0906 53.2929 85.9184 53.1174L83.1949 50.389C83.0834 50.2775 83.021 50.1265 83.0194 49.969V46.0479C83.0194 43.5509 85.0423 41.5264 87.5344 41.5264C90.0281 41.5264 92.0494 43.5509 92.0494 46.0479V55.3306C92.0494 57.826 90.0281 59.8489 87.5344 59.8505C85.6329 59.8489 83.9365 58.6545 83.2934 56.8613C83.213 56.6414 83.2687 56.3954 83.4345 56.2329L85.9184 53.7474Z" fill="#7F726D"/>
<path id="Vector_6" d="M98.6488 68.553C98.6488 67.9198 99.1623 67.4062 99.794 67.4062C100.426 67.4062 100.938 67.9198 100.938 68.553C100.938 69.1847 100.426 69.6982 99.794 69.6982C99.1623 69.6982 98.6488 69.1847 98.6488 68.553Z" fill="#7F726D"/>
<path id="Vector_7" d="M98.6313 68.5687C98.6313 67.9354 99.1431 67.4219 99.7764 67.4219C100.408 67.4219 100.92 67.9354 100.92 68.5687C100.92 69.202 100.408 69.7138 99.7764 69.7138C99.1431 69.7138 98.6313 69.202 98.6313 68.5687Z" fill="#7F726D"/>
<path id="Vector_8" d="M98.6156 68.5833C98.6156 67.95 99.1275 67.4365 99.7591 67.4365C100.392 67.4365 100.904 67.95 100.904 68.5833C100.904 69.2166 100.392 69.7285 99.7591 69.7285C99.1275 69.7285 98.6156 69.2166 98.6156 68.5833Z" fill="#7F726D"/>
<path id="Vector_9" d="M98.598 68.5954C98.598 67.9637 99.1099 67.4502 99.7416 67.4502C100.375 67.4502 100.887 67.9637 100.887 68.5954C100.887 69.2286 100.375 69.7421 99.7416 69.7421C99.1099 69.7421 98.598 69.2286 98.598 68.5954Z" fill="#7F726D"/>
<path id="Vector_10" d="M98.5785 68.61C98.5785 67.9784 99.0904 67.4648 99.7237 67.4648C100.355 67.4648 100.867 67.9784 100.867 68.61C100.867 69.2433 100.355 69.7568 99.7237 69.7568C99.0904 69.7568 98.5785 69.2433 98.5785 68.61Z" fill="#7F726D"/>
<path id="Vector_11" d="M98.5629 68.6246C98.5629 67.993 99.0748 67.4795 99.708 67.4795C100.34 67.4795 100.852 67.993 100.852 68.6246C100.852 69.2579 100.34 69.7714 99.708 69.7714C99.0748 69.7714 98.5629 69.2579 98.5629 68.6246Z" fill="#7F726D"/>
<path id="Vector_12" d="M98.5453 68.6393C98.5453 68.0077 99.0572 67.4941 99.6888 67.4941C100.322 67.4941 100.834 68.0077 100.834 68.6393C100.834 69.2726 100.322 69.7861 99.6888 69.7861C99.0572 69.7861 98.5453 69.2726 98.5453 68.6393Z" fill="#7F726D"/>
<path id="Vector_13" d="M98.5297 68.653C98.5297 68.0197 99.0416 67.5078 99.6732 67.5078C100.305 67.5078 100.818 68.0197 100.818 68.653C100.818 69.2863 100.305 69.7981 99.6732 69.7981C99.0416 69.7981 98.5297 69.2863 98.5297 68.653Z" fill="#7F726D"/>
<path id="Vector_14" d="M98.5102 68.6676C98.5102 68.0343 99.022 67.5225 99.6553 67.5225C100.287 67.5225 100.799 68.0343 100.799 68.6676C100.799 69.3009 100.287 69.8128 99.6553 69.8128C99.022 69.8128 98.5102 69.3009 98.5102 68.6676Z" fill="#7F726D"/>
<path id="Vector_15" d="M98.4926 68.681C98.4926 68.0477 99.0045 67.5342 99.6361 67.5342C100.269 67.5342 100.781 68.0477 100.781 68.681C100.781 69.3126 100.269 69.8261 99.6361 69.8261C99.0045 69.8261 98.4926 69.3126 98.4926 68.681Z" fill="#7F726D"/>
<path id="Vector_16" d="M98.475 68.692C98.475 68.0604 98.9885 67.5469 99.6202 67.5469C100.252 67.5469 100.764 68.0604 100.764 68.692C100.764 69.3253 100.252 69.8388 99.6202 69.8388C98.9885 69.8388 98.475 69.3253 98.475 68.692Z" fill="#7F726D"/>
<path id="Vector_17" d="M98.4574 68.7067C98.4574 68.075 98.9693 67.5615 99.6026 67.5615C100.234 67.5615 100.746 68.075 100.746 68.7067C100.746 69.34 100.234 69.8535 99.6026 69.8535C98.9693 69.8535 98.4574 69.34 98.4574 68.7067Z" fill="#7F726D"/>
<path id="Vector_18" d="M98.4398 68.7194C98.4398 68.0861 98.9517 67.5742 99.5834 67.5742C100.215 67.5742 100.729 68.0861 100.729 68.7194C100.729 69.3527 100.215 69.8645 99.5834 69.8645C98.9517 69.8645 98.4398 69.3527 98.4398 68.7194Z" fill="#7F726D"/>
<path id="Vector_19" d="M98.4203 68.7327C98.4203 68.0995 98.9322 67.5859 99.5655 67.5859C100.197 67.5859 100.709 68.0995 100.709 68.7327C100.709 69.3644 100.197 69.8779 99.5655 69.8779C98.9322 69.8779 98.4203 69.3644 98.4203 68.7327Z" fill="#7F726D"/>
<path id="Vector_20" d="M98.4027 68.7438C98.4027 68.1121 98.9146 67.5986 99.5462 67.5986C100.18 67.5986 100.691 68.1121 100.691 68.7438C100.691 69.3771 100.18 69.8906 99.5462 69.8906C98.9146 69.8906 98.4027 69.3771 98.4027 68.7438Z" fill="#7F726D"/>
<path id="Vector_21" d="M98.3832 68.7575C98.3832 68.1242 98.8967 67.6123 99.5284 67.6123C100.16 67.6123 100.672 68.1242 100.672 68.7575C100.672 69.3907 100.16 69.9026 99.5284 69.9026C98.8967 69.9026 98.3832 69.3907 98.3832 68.7575Z" fill="#7F726D"/>
<path id="Vector_22" d="M98.3656 68.7708C98.3656 68.1375 98.8775 67.624 99.5091 67.624C100.142 67.624 100.654 68.1375 100.654 68.7708C100.654 69.4025 100.142 69.916 99.5091 69.916C98.8775 69.916 98.3656 69.4025 98.3656 68.7708Z" fill="#7F726D"/>
<path id="Vector_23" d="M98.3464 68.7809C98.3464 68.1476 98.8599 67.6357 99.4916 67.6357C100.123 67.6357 100.637 68.1476 100.637 68.7809C100.637 69.4142 100.123 69.9277 99.4916 69.9277C98.8599 69.9277 98.3464 69.4142 98.3464 68.7809Z" fill="#7F726D"/>
<path id="Vector_24" d="M98.3285 68.7933C98.3285 68.16 98.8404 67.6465 99.472 67.6465C100.105 67.6465 100.617 68.16 100.617 68.7933C100.617 69.4249 100.105 69.9384 99.472 69.9384C98.8404 69.9384 98.3285 69.4249 98.3285 68.7933Z" fill="#7F726D"/>
<path id="Vector_25" d="M98.3129 68.8034C98.3129 68.1701 98.8248 67.6582 99.4564 67.6582C100.088 67.6582 100.602 68.1701 100.602 68.8034C100.602 69.4366 100.088 69.9502 99.4564 69.9502C98.8248 69.9502 98.3129 69.4366 98.3129 68.8034Z" fill="#7F726D"/>
<path id="Vector_26" d="M98.2914 68.8167C98.2914 68.1834 98.8033 67.6699 99.4366 67.6699C100.068 67.6699 100.58 68.1834 100.58 68.8167C100.58 69.45 100.068 69.9619 99.4366 69.9619C98.8033 69.9619 98.2914 69.45 98.2914 68.8167Z" fill="#7F726D"/>
<path id="Vector_27" d="M98.2738 68.8258C98.2738 68.1925 98.7857 67.6807 99.4173 67.6807C100.049 67.6807 100.562 68.1925 100.562 68.8258C100.562 69.4591 100.049 69.9726 99.4173 69.9726C98.7857 69.9726 98.2738 69.4591 98.2738 68.8258Z" fill="#7F726D"/>
<path id="Vector_28" d="M98.2523 68.8402C98.2523 68.2069 98.7642 67.6934 99.3959 67.6934C100.029 67.6934 100.541 68.2069 100.541 68.8402C100.541 69.4734 100.029 69.9853 99.3959 69.9853C98.7642 69.9853 98.2523 69.4734 98.2523 68.8402Z" fill="#7F726D"/>
<path id="Vector_29" d="M98.2331 68.8493C98.2331 68.2176 98.7466 67.7041 99.3783 67.7041C100.01 67.7041 100.523 68.2176 100.523 68.8493C100.523 69.4825 100.01 69.9961 99.3783 69.9961C98.7466 69.9961 98.2331 69.4825 98.2331 68.8493Z" fill="#7F726D"/>
<path id="Vector_30" d="M98.2152 68.8607C98.2152 68.2274 98.7271 67.7139 99.3587 67.7139C99.992 67.7139 100.504 68.2274 100.504 68.8607C100.504 69.4923 99.992 70.0058 99.3587 70.0058C98.7271 70.0058 98.2152 69.4923 98.2152 68.8607Z" fill="#7F726D"/>
<path id="Vector_31" d="M98.196 68.8707C98.196 68.2375 98.7095 67.7256 99.3412 67.7256C99.9728 67.7256 100.486 68.2375 100.486 68.8707C100.486 69.504 99.9728 70.0175 99.3412 70.0175C98.7095 70.0175 98.196 69.504 98.196 68.8707Z" fill="#7F726D"/>
<path id="Vector_32" d="M98.1762 68.8805C98.1762 68.2489 98.688 67.7354 99.3197 67.7354C99.953 67.7354 100.465 68.2489 100.465 68.8805C100.465 69.5138 99.953 70.0273 99.3197 70.0273C98.688 70.0273 98.1762 69.5138 98.1762 68.8805Z" fill="#7F726D"/>
<path id="Vector_33" d="M98.157 68.8919C98.157 68.2586 98.6705 67.7451 99.3021 67.7451C99.9337 67.7451 100.447 68.2586 100.447 68.8919C100.447 69.5252 99.9337 70.0371 99.3021 70.0371C98.6705 70.0371 98.157 69.5252 98.157 68.8919Z" fill="#7F726D"/>
<path id="Vector_34" d="M98.1371 68.902C98.1371 68.2704 98.649 67.7568 99.2806 67.7568C99.9123 67.7568 100.426 68.2704 100.426 68.902C100.426 69.5353 99.9123 70.0488 99.2806 70.0488C98.649 70.0488 98.1371 69.5353 98.1371 68.902Z" fill="#7F726D"/>
<path id="Vector_35" d="M98.1176 68.9134C98.1176 68.2801 98.6295 67.7666 99.2627 67.7666C99.8944 67.7666 100.406 68.2801 100.406 68.9134C100.406 69.545 99.8944 70.0586 99.2627 70.0586C98.6295 70.0586 98.1176 69.545 98.1176 68.9134Z" fill="#7F726D"/>
<path id="Vector_36" d="M98.098 68.9235C98.098 68.2902 98.6116 67.7783 99.2432 67.7783C99.8748 67.7783 100.387 68.2902 100.387 68.9235C100.387 69.5568 99.8748 70.0703 99.2432 70.0703C98.6116 70.0703 98.098 69.5568 98.098 68.9235Z" fill="#7F726D"/>
<path id="Vector_37" d="M98.0785 68.9313C98.0785 68.298 98.5904 67.7861 99.222 67.7861C99.8553 67.7861 100.367 68.298 100.367 68.9313C100.367 69.5646 99.8553 70.0781 99.222 70.0781C98.5904 70.0781 98.0785 69.5646 98.0785 68.9313Z" fill="#7F726D"/>
<path id="Vector_38" d="M98.059 68.9427C98.059 68.3094 98.5725 67.7959 99.2041 67.7959C99.8358 67.7959 100.348 68.3094 100.348 68.9427C100.348 69.5743 99.8358 70.0879 99.2041 70.0879C98.5725 70.0879 98.059 69.5743 98.059 68.9427Z" fill="#7F726D"/>
<path id="Vector_39" d="M98.0395 68.9505C98.0395 68.3172 98.5513 67.8037 99.183 67.8037C99.8146 67.8037 100.328 68.3172 100.328 68.9505C100.328 69.5821 99.8146 70.0957 99.183 70.0957C98.5513 70.0957 98.0395 69.5821 98.0395 68.9505Z" fill="#7F726D"/>
<path id="Vector_40" d="M98.018 68.9606C98.018 68.3273 98.5298 67.8154 99.1615 67.8154C99.7948 67.8154 100.307 68.3273 100.307 68.9606C100.307 69.5939 99.7948 70.1074 99.1615 70.1074C98.5298 70.1074 98.018 69.5939 98.018 68.9606Z" fill="#7F726D"/>
<path id="Vector_41" d="M97.9984 68.9694C97.9984 68.3361 98.512 67.8242 99.1436 67.8242C99.7752 67.8242 100.287 68.3361 100.287 68.9694C100.287 69.6027 99.7752 70.1162 99.1436 70.1162C98.512 70.1162 97.9984 69.6027 97.9984 68.9694Z" fill="#7F726D"/>
<path id="Vector_42" d="M97.9773 68.9772C97.9773 68.3455 98.4908 67.832 99.1224 67.832C99.7541 67.832 100.268 68.3455 100.268 68.9772C100.268 69.6105 99.7541 70.124 99.1224 70.124C98.4908 70.124 97.9773 69.6105 97.9773 68.9772Z" fill="#7F726D"/>
<path id="Vector_43" d="M97.9594 68.9886C97.9594 68.3553 98.4712 67.8418 99.1045 67.8418C99.7362 67.8418 100.248 68.3553 100.248 68.9886C100.248 69.6202 99.7362 70.1338 99.1045 70.1338C98.4712 70.1338 97.9594 69.6202 97.9594 68.9886Z" fill="#7F726D"/>
<path id="Vector_44" d="M97.9379 68.9974C97.9379 68.3641 98.4514 67.8506 99.083 67.8506C99.7147 67.8506 100.227 68.3641 100.227 68.9974C100.227 69.6307 99.7147 70.1425 99.083 70.1425C98.4514 70.1425 97.9379 69.6307 97.9379 68.9974Z" fill="#7F726D"/>
<path id="Vector_45" d="M97.9167 69.0052C97.9167 68.3719 98.4302 67.8584 99.0619 67.8584C99.6935 67.8584 100.207 68.3719 100.207 69.0052C100.207 69.6385 99.6935 70.1504 99.0619 70.1504C98.4302 70.1504 97.9167 69.6385 97.9167 69.0052Z" fill="#7F726D"/>
<path id="Vector_46" d="M97.8969 69.0133C97.8969 68.38 98.4088 67.8682 99.0404 67.8682C99.6737 67.8682 100.186 68.38 100.186 69.0133C100.186 69.6466 99.6737 70.1601 99.0404 70.1601C98.4088 70.1601 97.8969 69.6466 97.8969 69.0133Z" fill="#7F726D"/>
<path id="Vector_47" d="M97.8773 69.0211C97.8773 68.3879 98.3892 67.876 99.0225 67.876C99.6541 67.876 100.166 68.3879 100.166 69.0211C100.166 69.6544 99.6541 70.1679 99.0225 70.1679C98.3892 70.1679 97.8773 69.6544 97.8773 69.0211Z" fill="#7F726D"/>
<path id="Vector_48" d="M97.8562 69.0299C97.8562 68.3983 98.3697 67.8848 99.0013 67.8848C99.633 67.8848 100.146 68.3983 100.146 69.0299C100.146 69.6632 99.633 70.1767 99.0013 70.1767C98.3697 70.1767 97.8562 69.6632 97.8562 69.0299Z" fill="#7F726D"/>
<path id="Vector_49" d="M97.8363 69.0368C97.8363 68.4035 98.3482 67.8916 98.9798 67.8916C99.6115 67.8916 100.125 68.4035 100.125 69.0368C100.125 69.67 99.6115 70.1836 98.9798 70.1836C98.3482 70.1836 97.8363 69.67 97.8363 69.0368Z" fill="#7F726D"/>
<path id="Vector_50" d="M97.8148 69.0446C97.8148 68.4129 98.3267 67.8994 98.9584 67.8994C99.5916 67.8994 100.104 68.4129 100.104 69.0446C100.104 69.6779 99.5916 70.1914 98.9584 70.1914C98.3267 70.1914 97.8148 69.6779 97.8148 69.0446Z" fill="#7F726D"/>
<path id="Vector_51" d="M97.7934 69.0524C97.7934 68.4207 98.3052 67.9072 98.9385 67.9072C99.5702 67.9072 100.082 68.4207 100.082 69.0524C100.082 69.6857 99.5702 70.1992 98.9385 70.1992C98.3052 70.1992 97.7934 69.6857 97.7934 69.0524Z" fill="#7F726D"/>
<path id="Vector_52" d="M97.7719 69.0592C97.7719 68.4259 98.2854 67.9141 98.917 67.9141C99.5487 67.9141 100.061 68.4259 100.061 69.0592C100.061 69.6925 99.5487 70.206 98.917 70.206C98.2854 70.206 97.7719 69.6925 97.7719 69.0592Z" fill="#7F726D"/>
<path id="Vector_53" d="M97.7523 69.068C97.7523 68.4364 98.2642 67.9229 98.8959 67.9229C99.5275 67.9229 100.041 68.4364 100.041 69.068C100.041 69.7013 99.5275 70.2148 98.8959 70.2148C98.2642 70.2148 97.7523 69.7013 97.7523 69.068Z" fill="#7F726D"/>
<path id="Vector_54" d="M97.7309 69.0739C97.7309 68.4406 98.2427 67.9287 98.8744 67.9287C99.5077 67.9287 100.02 68.4406 100.02 69.0739C100.02 69.7071 99.5077 70.2207 98.8744 70.2207C98.2427 70.2207 97.7309 69.7071 97.7309 69.0739Z" fill="#7F726D"/>
<path id="Vector_55" d="M97.7094 69.0827C97.7094 68.451 98.2212 67.9375 98.8545 67.9375C99.4862 67.9375 99.998 68.451 99.998 69.0827C99.998 69.7159 99.4862 70.2295 98.8545 70.2295C98.2212 70.2295 97.7094 69.7159 97.7094 69.0827Z" fill="#7F726D"/>
<path id="Vector_56" d="M97.6879 69.0885C97.6879 68.4552 98.2014 67.9434 98.833 67.9434C99.4647 67.9434 99.9766 68.4552 99.9766 69.0885C99.9766 69.7218 99.4647 70.2353 98.833 70.2353C98.2014 70.2353 97.6879 69.7218 97.6879 69.0885Z" fill="#7F726D"/>
<path id="Vector_57" d="M97.6667 69.096C97.6667 68.4627 98.1802 67.9492 98.8119 67.9492C99.4435 67.9492 99.957 68.4627 99.957 69.096C99.957 69.7293 99.4435 70.2412 98.8119 70.2412C98.1802 70.2412 97.6667 69.7293 97.6667 69.096Z" fill="#7F726D"/>
<path id="Vector_58" d="M97.6469 69.1032C97.6469 68.4699 98.1588 67.958 98.7904 67.958C99.422 67.958 99.9355 68.4699 99.9355 69.1032C99.9355 69.7364 99.422 70.25 98.7904 70.25C98.1588 70.25 97.6469 69.7364 97.6469 69.1032Z" fill="#7F726D"/>
<path id="Vector_59" d="M97.6234 69.1107C97.6234 68.4774 98.1353 67.9639 98.767 67.9639C99.3986 67.9639 99.9121 68.4774 99.9121 69.1107C99.9121 69.7439 99.3986 70.2558 98.767 70.2558C98.1353 70.2558 97.6234 69.7439 97.6234 69.1107Z" fill="#7F726D"/>
<path id="Vector_60" d="M97.6039 69.1165C97.6039 68.4832 98.1158 67.9697 98.7474 67.9697C99.3807 67.9697 99.8926 68.4832 99.8926 69.1165C99.8926 69.7482 99.3807 70.2617 98.7474 70.2617C98.1158 70.2617 97.6039 69.7482 97.6039 69.1165Z" fill="#7F726D"/>
<path id="Vector_61" d="M97.5824 69.1234C97.5824 68.4901 98.0943 67.9766 98.7276 67.9766C99.3592 67.9766 99.8711 68.4901 99.8711 69.1234C99.8711 69.755 99.3592 70.2685 98.7276 70.2685C98.0943 70.2685 97.5824 69.755 97.5824 69.1234Z" fill="#7F726D"/>
<path id="Vector_62" d="M97.559 69.1286C97.559 68.4969 98.0725 67.9834 98.7041 67.9834C99.3358 67.9834 99.8477 68.4969 99.8477 69.1286C99.8477 69.7618 99.3358 70.2754 98.7041 70.2754C98.0725 70.2754 97.559 69.7618 97.559 69.1286Z" fill="#7F726D"/>
<path id="Vector_63" d="M97.5398 69.1344C97.5398 68.5028 98.0533 67.9893 98.6849 67.9893C99.3166 67.9893 99.8301 68.5028 99.8301 69.1344C99.8301 69.7677 99.3166 70.2812 98.6849 70.2812C98.0533 70.2812 97.5398 69.7677 97.5398 69.1344Z" fill="#7F726D"/>
<path id="Vector_64" d="M97.5163 69.1413C97.5163 68.508 98.0298 67.9961 98.6615 67.9961C99.2931 67.9961 99.8066 68.508 99.8066 69.1413C99.8066 69.7745 99.2931 70.288 98.6615 70.288C98.0298 70.288 97.5163 69.7745 97.5163 69.1413Z" fill="#7F726D"/>
<path id="Vector_65" d="M97.4965 69.1458C97.4965 68.5125 98.0084 67.999 98.64 67.999C99.2716 67.999 99.7852 68.5125 99.7852 69.1458C99.7852 69.7775 99.2716 70.291 98.64 70.291C98.0084 70.291 97.4965 69.7775 97.4965 69.1458Z" fill="#7F726D"/>
<path id="Vector_66" d="M97.475 69.151C97.475 68.5194 97.9869 68.0059 98.6185 68.0059C99.2518 68.0059 99.7637 68.5194 99.7637 69.151C99.7637 69.7843 99.2518 70.2978 98.6185 70.2978C97.9869 70.2978 97.475 69.7843 97.475 69.151Z" fill="#7F726D"/>
<path id="Vector_67" d="M97.4516 69.1579C97.4516 68.5262 97.9634 68.0127 98.5951 68.0127C99.2284 68.0127 99.7402 68.5262 99.7402 69.1579C99.7402 69.7911 99.2284 70.3046 98.5951 70.3046C97.9634 70.3046 97.4516 69.7911 97.4516 69.1579Z" fill="#7F726D"/>
<path id="Vector_68" d="M97.4301 69.1647C97.4301 68.5314 97.942 68.0195 98.5752 68.0195C99.2069 68.0195 99.7188 68.5314 99.7188 69.1647C99.7188 69.798 99.2069 70.3115 98.5752 70.3115C97.942 70.3115 97.4301 69.798 97.4301 69.1647Z" fill="#7F726D"/>
<path id="Vector_69" d="M97.4066 69.1693C97.4066 68.536 97.9185 68.0225 98.5518 68.0225C99.1834 68.0225 99.6953 68.536 99.6953 69.1693C99.6953 69.8009 99.1834 70.3144 98.5518 70.3144C97.9185 70.3144 97.4066 69.8009 97.4066 69.1693Z" fill="#7F726D"/>
<path id="Vector_70" d="M97.3871 69.1761C97.3871 68.5428 97.9006 68.0293 98.5323 68.0293C99.1639 68.0293 99.6758 68.5428 99.6758 69.1761C99.6758 69.8077 99.1639 70.3213 98.5323 70.3213C97.9006 70.3213 97.3871 69.8077 97.3871 69.1761Z" fill="#7F726D"/>
<path id="Vector_71" d="M97.3637 69.1793C97.3637 68.5461 97.8755 68.0342 98.5088 68.0342C99.1405 68.0342 99.6523 68.5461 99.6523 69.1793C99.6523 69.8126 99.1405 70.3261 98.5088 70.3261C97.8755 70.3261 97.3637 69.8126 97.3637 69.1793Z" fill="#7F726D"/>
<path id="Vector_72" d="M97.3425 69.1839C97.3425 68.5506 97.856 68.0371 98.4877 68.0371C99.1193 68.0371 99.6328 68.5506 99.6328 69.1839C99.6328 69.8155 99.1193 70.3291 98.4877 70.3291C97.856 70.3291 97.3425 69.8155 97.3425 69.1839Z" fill="#7F726D"/>
<path id="Vector_73" d="M97.3227 69.1907C97.3227 68.5575 97.8345 68.0439 98.4662 68.0439C99.0978 68.0439 99.6113 68.5575 99.6113 69.1907C99.6113 69.8224 99.0978 70.3359 98.4662 70.3359C97.8345 70.3359 97.3227 69.8224 97.3227 69.1907Z" fill="#7F726D"/>
<path id="Vector_74" d="M97.2992 69.194C97.2992 68.5607 97.8111 68.0488 98.4427 68.0488C99.0744 68.0488 99.5879 68.5607 99.5879 69.194C99.5879 69.8273 99.0744 70.3408 98.4427 70.3408C97.8111 70.3408 97.2992 69.8273 97.2992 69.194Z" fill="#7F726D"/>
<path id="Vector_75" d="M97.2777 69.1986C97.2777 68.5653 97.7896 68.0518 98.4212 68.0518C99.0529 68.0518 99.5664 68.5653 99.5664 69.1986C99.5664 69.8302 99.0529 70.3437 98.4212 70.3437C97.7896 70.3437 97.2777 69.8302 97.2777 69.1986Z" fill="#7F726D"/>
<path id="Vector_76" d="M97.2543 69.2038C97.2543 68.5721 97.7662 68.0586 98.3978 68.0586C99.0311 68.0586 99.543 68.5721 99.543 69.2038C99.543 69.837 99.0311 70.3505 98.3978 70.3505C97.7662 70.3505 97.2543 69.837 97.2543 69.2038Z" fill="#7F726D"/>
<path id="Vector_77" d="M97.2328 69.2086C97.2328 68.5754 97.7447 68.0635 98.3763 68.0635C99.008 68.0635 99.5215 68.5754 99.5215 69.2086C99.5215 69.8419 99.008 70.3538 98.3763 70.3538C97.7447 70.3538 97.2328 69.8419 97.2328 69.2086Z" fill="#7F726D"/>
<path id="Vector_78" d="M97.2113 69.2132C97.2113 68.5799 97.7232 68.0664 98.3548 68.0664C98.9881 68.0664 99.5 68.5799 99.5 69.2132C99.5 69.8448 98.9881 70.3584 98.3548 70.3584C97.7232 70.3584 97.2113 69.8448 97.2113 69.2132Z" fill="#7F726D"/>
<path id="Vector_79" d="M97.1879 69.2164C97.1879 68.5832 97.6998 68.0713 98.3314 68.0713C98.9647 68.0713 99.4766 68.5832 99.4766 69.2164C99.4766 69.8497 98.9647 70.3632 98.3314 70.3632C97.6998 70.3632 97.1879 69.8497 97.1879 69.2164Z" fill="#7F726D"/>
<path id="Vector_80" d="M97.1664 69.222C97.1664 68.5887 97.6783 68.0752 98.3116 68.0752C98.9432 68.0752 99.4551 68.5887 99.4551 69.222C99.4551 69.8536 98.9432 70.3671 98.3116 70.3671C97.6783 70.3671 97.1664 69.8536 97.1664 69.222Z" fill="#7F726D"/>
<path id="Vector_81" d="M97.143 69.2252C97.143 68.5936 97.6548 68.0801 98.2881 68.0801C98.9198 68.0801 99.4316 68.5936 99.4316 69.2252C99.4316 69.8585 98.9198 70.372 98.2881 70.372C97.6548 70.372 97.143 69.8585 97.143 69.2252Z" fill="#7F726D"/>
<path id="Vector_82" d="M97.1195 69.2298C97.1195 68.5965 97.6314 68.083 98.2647 68.083C98.8963 68.083 99.4082 68.5965 99.4082 69.2298C99.4082 69.8631 98.8963 70.375 98.2647 70.375C97.6314 70.375 97.1195 69.8631 97.1195 69.2298Z" fill="#7F726D"/>
<path id="Vector_83" d="M97.1 69.2321C97.1 68.5988 97.6119 68.0869 98.2452 68.0869C98.8768 68.0869 99.3887 68.5988 99.3887 69.2321C99.3887 69.8654 98.8768 70.3789 98.2452 70.3789C97.6119 70.3789 97.1 69.8654 97.1 69.2321Z" fill="#7F726D"/>
<path id="Vector_84" d="M97.0766 69.2366C97.0766 68.6034 97.5884 68.0898 98.2217 68.0898C98.8534 68.0898 99.3652 68.6034 99.3652 69.2366C99.3652 69.8683 98.8534 70.3818 98.2217 70.3818C97.5884 70.3818 97.0766 69.8683 97.0766 69.2366Z" fill="#7F726D"/>
<path id="Vector_85" d="M97.0531 69.2399C97.0531 68.6066 97.565 68.0947 98.1983 68.0947C98.8299 68.0947 99.3418 68.6066 99.3418 69.2399C99.3418 69.8732 98.8299 70.3867 98.1983 70.3867C97.565 70.3867 97.0531 69.8732 97.0531 69.2399Z" fill="#7F726D"/>
<path id="Vector_86" d="M97.0297 69.2445C97.0297 68.6112 97.5416 68.0977 98.1748 68.0977C98.8065 68.0977 99.3184 68.6112 99.3184 69.2445C99.3184 69.8777 98.8065 70.3896 98.1748 70.3896C97.5416 70.3896 97.0297 69.8777 97.0297 69.2445Z" fill="#7F726D"/>
<path id="Vector_87" d="M97.0082 69.2467C97.0082 68.6134 97.5217 68.1016 98.1534 68.1016C98.785 68.1016 99.2969 68.6134 99.2969 69.2467C99.2969 69.88 98.785 70.3935 98.1534 70.3935C97.5217 70.3935 97.0082 69.88 97.0082 69.2467Z" fill="#7F726D"/>
<path id="Vector_88" d="M96.9867 69.2513C96.9867 68.618 97.5002 68.1045 98.1319 68.1045C98.7635 68.1045 99.2754 68.618 99.2754 69.2513C99.2754 69.8829 98.7635 70.3964 98.1319 70.3964C97.5002 70.3964 96.9867 69.8829 96.9867 69.2513Z" fill="#7F726D"/>
<path id="Vector_89" d="M96.9633 69.2545C96.9633 68.6213 97.4752 68.1094 98.1084 68.1094C98.7401 68.1094 99.252 68.6213 99.252 69.2545C99.252 69.8878 98.7401 70.4013 98.1084 70.4013C97.4752 70.4013 96.9633 69.8878 96.9633 69.2545Z" fill="#7F726D"/>
<path id="Vector_90" d="M96.9421 69.2565C96.9421 68.6248 97.4556 68.1113 98.0873 68.1113C98.7189 68.1113 99.2324 68.6248 99.2324 69.2565C99.2324 69.8898 98.7189 70.4033 98.0873 70.4033C97.4556 70.4033 96.9421 69.8898 96.9421 69.2565Z" fill="#7F726D"/>
<path id="Vector_91" d="M96.9184 69.2591C96.9184 68.6258 97.4319 68.1123 98.0635 68.1123C98.6952 68.1123 99.207 68.6258 99.207 69.2591C99.207 69.8907 98.6952 70.4043 98.0635 70.4043C97.4319 70.4043 96.9184 69.8907 96.9184 69.2591Z" fill="#7F726D"/>
<path id="Vector_92" d="M96.8969 69.2633C96.8969 68.6317 97.4104 68.1182 98.042 68.1182C98.6737 68.1182 99.1855 68.6317 99.1855 69.2633C99.1855 69.8966 98.6737 70.4101 98.042 70.4101C97.4104 70.4101 96.8969 69.8966 96.8969 69.2633Z" fill="#7F726D"/>
<path id="Vector_93" d="M96.8734 69.2659C96.8734 68.6327 97.387 68.1191 98.0186 68.1191C98.6502 68.1191 99.1621 68.6327 99.1621 69.2659C99.1621 69.8976 98.6502 70.4111 98.0186 70.4111C97.387 70.4111 96.8734 69.8976 96.8734 69.2659Z" fill="#7F726D"/>
<path id="Vector_94" d="M96.85 69.2692C96.85 68.6359 97.3619 68.124 97.9952 68.124C98.6268 68.124 99.1387 68.6359 99.1387 69.2692C99.1387 69.9025 98.6268 70.416 97.9952 70.416C97.3619 70.416 96.85 69.9025 96.85 69.2692Z" fill="#7F726D"/>
<path id="Vector_95" d="M96.8288 69.2711C96.8288 68.6395 97.3423 68.126 97.974 68.126C98.6056 68.126 99.1191 68.6395 99.1191 69.2711C99.1191 69.9044 98.6056 70.4179 97.974 70.4179C97.3423 70.4179 96.8288 69.9044 96.8288 69.2711Z" fill="#7F726D"/>
<path id="Vector_96" d="M96.8051 69.2747C96.8051 68.6414 97.3186 68.1279 97.9502 68.1279C98.5819 68.1279 99.0938 68.6414 99.0938 69.2747C99.0938 69.9064 98.5819 70.4199 97.9502 70.4199C97.3186 70.4199 96.8051 69.9064 96.8051 69.2747Z" fill="#7F726D"/>
<path id="Vector_97" d="M96.7836 69.276C96.7836 68.6427 97.2971 68.1309 97.9288 68.1309C98.5604 68.1309 99.0723 68.6427 99.0723 69.276C99.0723 69.9093 98.5604 70.4212 97.9288 70.4212C97.2971 70.4212 96.7836 69.9093 96.7836 69.276Z" fill="#7F726D"/>
<path id="Vector_98" d="M96.7602 69.2806C96.7602 68.6473 97.2737 68.1338 97.9053 68.1338C98.537 68.1338 99.0488 68.6473 99.0488 69.2806C99.0488 69.9122 98.537 70.4257 97.9053 70.4257C97.2737 70.4257 96.7602 69.9122 96.7602 69.2806Z" fill="#7F726D"/>
<path id="Vector_99" d="M96.7367 69.2825C96.7367 68.6493 97.2486 68.1357 97.8819 68.1357C98.5135 68.1357 99.0254 68.6493 99.0254 69.2825C99.0254 69.9158 98.5135 70.4277 97.8819 70.4277C97.2486 70.4277 96.7367 69.9158 96.7367 69.2825Z" fill="#7F726D"/>
<path id="Vector_100" d="M96.7155 69.2848C96.7155 68.6515 97.2291 68.1396 97.8607 68.1396C98.4923 68.1396 99.0059 68.6515 99.0059 69.2848C99.0059 69.9181 98.4923 70.4316 97.8607 70.4316C97.2291 70.4316 96.7155 69.9181 96.7155 69.2848Z" fill="#7F726D"/>
<path id="Vector_101" d="M96.6918 69.2858C96.6918 68.6541 97.2053 68.1406 97.837 68.1406C98.4686 68.1406 98.9805 68.6541 98.9805 69.2858C98.9805 69.9191 98.4686 70.4326 97.837 70.4326C97.2053 70.4326 96.6918 69.9191 96.6918 69.2858Z" fill="#7F726D"/>
<path id="Vector_102" d="M96.6703 69.2894C96.6703 68.6561 97.1838 68.1426 97.8155 68.1426C98.4471 68.1426 98.959 68.6561 98.959 69.2894C98.959 69.921 98.4471 70.4345 97.8155 70.4345C97.1838 70.4345 96.6703 69.921 96.6703 69.2894Z" fill="#7F726D"/>
<path id="Vector_103" d="M96.6469 69.2904C96.6469 68.6571 97.1604 68.1436 97.792 68.1436C98.4237 68.1436 98.9355 68.6571 98.9355 69.2904C98.9355 69.9236 98.4237 70.4355 97.792 70.4355C97.1604 70.4355 96.6469 69.9236 96.6469 69.2904Z" fill="#7F726D"/>
<path id="Vector_104" d="M96.6234 69.2926C96.6234 68.6593 97.1353 68.1475 97.7686 68.1475C98.4002 68.1475 98.9121 68.6593 98.9121 69.2926C98.9121 69.9259 98.4002 70.4394 97.7686 70.4394C97.1353 70.4394 96.6234 69.9259 96.6234 69.2926Z" fill="#7F726D"/>
<path id="Vector_105" d="M96.602 69.2936C96.602 68.662 97.1138 68.1484 97.7471 68.1484C98.3787 68.1484 98.8906 68.662 98.8906 69.2936C98.8906 69.9269 98.3787 70.4404 97.7471 70.4404C97.1138 70.4404 96.602 69.9269 96.602 69.2936Z" fill="#7F726D"/>
<path id="Vector_106" d="M96.5785 69.2972C96.5785 68.6639 97.092 68.1504 97.7237 68.1504C98.3553 68.1504 98.8672 68.6639 98.8672 69.2972C98.8672 69.9305 98.3553 70.4423 97.7237 70.4423C97.092 70.4423 96.5785 69.9305 96.5785 69.2972Z" fill="#7F726D"/>
<path id="Vector_107" d="M96.557 69.2972C96.557 68.6639 97.0705 68.1504 97.7022 68.1504C98.3338 68.1504 98.8457 68.6639 98.8457 69.2972C98.8457 69.9305 98.3338 70.4423 97.7022 70.4423C97.0705 70.4423 96.557 69.9305 96.557 69.2972Z" fill="#7F726D"/>
<path id="Vector_108" d="M96.5336 69.2985C96.5336 68.6652 97.0471 68.1533 97.6788 68.1533C98.3104 68.1533 98.8223 68.6652 98.8223 69.2985C98.8223 69.9318 98.3104 70.4436 97.6788 70.4436C97.0471 70.4436 96.5336 69.9318 96.5336 69.2985Z" fill="#7F726D"/>
<path id="Vector_109" d="M96.5102 69.3004C96.5102 68.6688 97.022 68.1553 97.6553 68.1553C98.287 68.1553 98.7988 68.6688 98.7988 69.3004C98.7988 69.9337 98.287 70.4472 97.6553 70.4472C97.022 70.4472 96.5102 69.9337 96.5102 69.3004Z" fill="#7F726D"/>
<path id="Vector_110" d="M96.4867 69.304C96.4867 68.6707 96.9986 68.1572 97.6319 68.1572C98.2635 68.1572 98.7754 68.6707 98.7754 69.304C98.7754 69.9357 98.2635 70.4492 97.6319 70.4492C96.9986 70.4492 96.4867 69.9357 96.4867 69.304Z" fill="#7F726D"/>
<path id="Vector_111" d="M96.4633 69.304C96.4633 68.6707 96.9752 68.1572 97.6084 68.1572C98.2401 68.1572 98.752 68.6707 98.752 69.304C98.752 69.9357 98.2401 70.4492 97.6084 70.4492C96.9752 70.4492 96.4633 69.9357 96.4633 69.304Z" fill="#7F726D"/>
<path id="Vector_112" d="M96.4418 69.306C96.4418 68.6727 96.9537 68.1592 97.587 68.1592C98.2186 68.1592 98.7305 68.6727 98.7305 69.306C98.7305 69.9393 98.2186 70.4511 97.587 70.4511C96.9537 70.4511 96.4418 69.9393 96.4418 69.306Z" fill="#7F726D"/>
<path id="Vector_113" d="M96.4203 69.3073C96.4203 68.674 96.9338 68.1621 97.5655 68.1621C98.1971 68.1621 98.709 68.674 98.709 69.3073C98.709 69.9405 98.1971 70.4541 97.5655 70.4541C96.9338 70.4541 96.4203 69.9405 96.4203 69.3073Z" fill="#7F726D"/>
<path id="Vector_114" d="M96.3969 69.3073C96.3969 68.674 96.9087 68.1621 97.542 68.1621C98.1737 68.1621 98.6855 68.674 98.6855 69.3073C98.6855 69.9405 98.1737 70.4541 97.542 70.4541C96.9087 70.4541 96.3969 69.9405 96.3969 69.3073Z" fill="#7F726D"/>
<path id="Vector_115" d="M96.3734 69.3082C96.3734 68.6766 96.8853 68.1631 97.5186 68.1631C98.1502 68.1631 98.6621 68.6766 98.6621 69.3082C98.6621 69.9415 98.1502 70.455 97.5186 70.455C96.8853 70.455 96.3734 69.9415 96.3734 69.3082Z" fill="#7F726D"/>
<path id="Vector_116" d="M96.352 69.3082C96.352 68.6766 96.8638 68.1631 97.4971 68.1631C98.1287 68.1631 98.6406 68.6766 98.6406 69.3082C98.6406 69.9415 98.1287 70.455 97.4971 70.455C96.8638 70.455 96.352 69.9415 96.352 69.3082Z" fill="#7F726D"/>
<path id="Vector_117" d="M96.3285 69.3118C96.3285 68.6786 96.8404 68.165 97.4737 68.165C98.1053 68.165 98.6172 68.6786 98.6172 69.3118C98.6172 69.9435 98.1053 70.457 97.4737 70.457C96.8404 70.457 96.3285 69.9435 96.3285 69.3118Z" fill="#7F726D"/>
<path id="Vector_118" d="M96.3051 69.3118C96.3051 68.6786 96.817 68.165 97.4502 68.165C98.0819 68.165 98.5938 68.6786 98.5938 69.3118C98.5938 69.9435 98.0819 70.457 97.4502 70.457C96.817 70.457 96.3051 69.9435 96.3051 69.3118Z" fill="#7F726D"/>
<path id="Vector_119" d="M96.2836 69.3141C96.2836 68.6808 96.7971 68.1689 97.4288 68.1689C98.0604 68.1689 98.5723 68.6808 98.5723 69.3141C98.5723 69.9474 98.0604 70.4593 97.4288 70.4593C96.7971 70.4593 96.2836 69.9474 96.2836 69.3141Z" fill="#7F726D"/>
<path id="Vector_120" d="M96.2621 69.3141C96.2621 68.6808 96.774 68.1689 97.4073 68.1689C98.0389 68.1689 98.5508 68.6808 98.5508 69.3141C98.5508 69.9474 98.0389 70.4593 97.4073 70.4593C96.774 70.4593 96.2621 69.9474 96.2621 69.3141Z" fill="#7F726D"/>
<path id="Vector_121" d="M96.2387 69.3151C96.2387 68.6834 96.7505 68.1699 97.3838 68.1699C98.0155 68.1699 98.5273 68.6834 98.5273 69.3151C98.5273 69.9484 98.0155 70.4619 97.3838 70.4619C96.7505 70.4619 96.2387 69.9484 96.2387 69.3151Z" fill="#7F726D"/>
<path id="Vector_122" d="M96.2152 69.3151C96.2152 68.6834 96.7271 68.1699 97.3604 68.1699C97.992 68.1699 98.5039 68.6834 98.5039 69.3151C98.5039 69.9484 97.992 70.4619 97.3604 70.4619C96.7271 70.4619 96.2152 69.9484 96.2152 69.3151Z" fill="#7F726D"/>
<path id="Vector_123" d="M96.1918 69.3151C96.1918 68.6834 96.7037 68.1699 97.337 68.1699C97.9686 68.1699 98.4805 68.6834 98.4805 69.3151C98.4805 69.9484 97.9686 70.4619 97.337 70.4619C96.7037 70.4619 96.1918 69.9484 96.1918 69.3151Z" fill="#7F726D"/>
<path id="Vector_124" d="M96.1703 69.3187C96.1703 68.6854 96.6838 68.1719 97.3155 68.1719C97.9471 68.1719 98.459 68.6854 98.459 69.3187C98.459 69.9503 97.9471 70.4638 97.3155 70.4638C96.6838 70.4638 96.1703 69.9503 96.1703 69.3187Z" fill="#7F726D"/>
<path id="Vector_125" d="M96.1469 69.3187C96.1469 68.6854 96.6587 68.1719 97.292 68.1719C97.9237 68.1719 98.4355 68.6854 98.4355 69.3187C98.4355 69.9503 97.9237 70.4638 97.292 70.4638C96.6587 70.4638 96.1469 69.9503 96.1469 69.3187Z" fill="#7F726D"/>
<path id="Vector_126" d="M96.1254 69.3187C96.1254 68.6854 96.6373 68.1719 97.2705 68.1719C97.9022 68.1719 98.4141 68.6854 98.4141 69.3187C98.4141 69.9503 97.9022 70.4638 97.2705 70.4638C96.6373 70.4638 96.1254 69.9503 96.1254 69.3187Z" fill="#7F726D"/>
<path id="Vector_127" d="M96.102 69.3187C96.102 68.6854 96.6138 68.1719 97.2471 68.1719C97.8787 68.1719 98.3906 68.6854 98.3906 69.3187C98.3906 69.9503 97.8787 70.4638 97.2471 70.4638C96.6138 70.4638 96.102 69.9503 96.102 69.3187Z" fill="#7F726D"/>
<path id="Vector_128" d="M96.0805 69.3196C96.0805 68.6864 96.594 68.1729 97.2256 68.1729C97.8573 68.1729 98.3691 68.6864 98.3691 69.3196C98.3691 69.9529 97.8573 70.4648 97.2256 70.4648C96.594 70.4648 96.0805 69.9529 96.0805 69.3196Z" fill="#7F726D"/>
<path id="Vector_129" d="M96.057 69.3196C96.057 68.6864 96.5705 68.1729 97.2022 68.1729C97.8338 68.1729 98.3457 68.6864 98.3457 69.3196C98.3457 69.9529 97.8338 70.4648 97.2022 70.4648C96.5705 70.4648 96.057 69.9529 96.057 69.3196Z" fill="#7F726D"/>
<path id="Vector_130" d="M96.0336 69.3196C96.0336 68.6864 96.5455 68.1729 97.1788 68.1729C97.8104 68.1729 98.3223 68.6864 98.3223 69.3196C98.3223 69.9529 97.8104 70.4648 97.1788 70.4648C96.5455 70.4648 96.0336 69.9529 96.0336 69.3196Z" fill="#7F726D"/>
<path id="Vector_131" d="M96.0121 69.3196C96.0121 68.6864 96.524 68.1729 97.1573 68.1729C97.7889 68.1729 98.3008 68.6864 98.3008 69.3196C98.3008 69.9529 97.7889 70.4648 97.1573 70.4648C96.524 70.4648 96.0121 69.9529 96.0121 69.3196Z" fill="#7F726D"/>
<path id="Vector_132" d="M95.9906 69.3196C95.9906 68.6864 96.5041 68.1729 97.1358 68.1729C97.7674 68.1729 98.2793 68.6864 98.2793 69.3196C98.2793 69.9529 97.7674 70.4648 97.1358 70.4648C96.5041 70.4648 95.9906 69.9529 95.9906 69.3196Z" fill="#7F726D"/>
<path id="Vector_133" d="M95.9672 69.3196C95.9672 68.6864 96.4807 68.1729 97.1123 68.1729C97.744 68.1729 98.2559 68.6864 98.2559 69.3196C98.2559 69.9529 97.744 70.4648 97.1123 70.4648C96.4807 70.4648 95.9672 69.9529 95.9672 69.3196Z" fill="#7F726D"/>
<path id="Vector_134" d="M95.9438 69.3196C95.9438 68.6864 96.4573 68.1729 97.0889 68.1729C97.7205 68.1729 98.2324 68.6864 98.2324 69.3196C98.2324 69.9529 97.7205 70.4648 97.0889 70.4648C96.4573 70.4648 95.9438 69.9529 95.9438 69.3196Z" fill="#7F726D"/>
<path id="Vector_135" d="M95.9203 69.3196C95.9203 68.6864 96.4322 68.1729 97.0655 68.1729C97.6971 68.1729 98.209 68.6864 98.209 69.3196C98.209 69.9529 97.6971 70.4648 97.0655 70.4648C96.4322 70.4648 95.9203 69.9529 95.9203 69.3196Z" fill="#7F726D"/>
<path id="Vector_136" d="M95.9011 69.3196C95.9011 68.6864 96.4146 68.1729 97.0462 68.1729C97.6779 68.1729 98.1914 68.6864 98.1914 69.3196C98.1914 69.9529 97.6779 70.4648 97.0462 70.4648C96.4146 70.4648 95.9011 69.9529 95.9011 69.3196Z" fill="#7F726D"/>
<path id="Vector_137" d="M95.8773 69.3196C95.8773 68.6864 96.3909 68.1729 97.0225 68.1729C97.6541 68.1729 98.166 68.6864 98.166 69.3196C98.166 69.9529 97.6541 70.4648 97.0225 70.4648C96.3909 70.4648 95.8773 69.9529 95.8773 69.3196Z" fill="#7F726D"/>
<path id="Vector_138" d="M95.8559 69.3219C95.8559 68.6886 96.3694 68.1768 97.001 68.1768C97.6327 68.1768 98.1445 68.6886 98.1445 69.3219C98.1445 69.9552 97.6327 70.4687 97.001 70.4687C96.3694 70.4687 95.8559 69.9552 95.8559 69.3219Z" fill="#7F726D"/>
<path id="Vector_139" d="M95.8344 69.3196C95.8344 68.6864 96.3463 68.1729 96.9779 68.1729C97.6095 68.1729 98.123 68.6864 98.123 69.3196C98.123 69.9529 97.6095 70.4648 96.9779 70.4648C96.3463 70.4648 95.8344 69.9529 95.8344 69.3196Z" fill="#7F726D"/>
<path id="Vector_140" d="M95.8093 69.3196C95.8093 68.6864 96.3228 68.1729 96.9545 68.1729C97.5861 68.1729 98.0996 68.6864 98.0996 69.3196C98.0996 69.9529 97.5861 70.4648 96.9545 70.4648C96.3228 70.4648 95.8093 69.9529 95.8093 69.3196Z" fill="#7F726D"/>
<path id="Vector_141" d="M95.7878 69.3196C95.7878 68.6864 96.3013 68.1729 96.933 68.1729C97.5646 68.1729 98.0781 68.6864 98.0781 69.3196C98.0781 69.9529 97.5646 70.4648 96.933 70.4648C96.3013 70.4648 95.7878 69.9529 95.7878 69.3196Z" fill="#7F726D"/>
<path id="Vector_142" d="M95.7641 69.3196C95.7641 68.6864 96.2776 68.1729 96.9092 68.1729C97.5409 68.1729 98.0527 68.6864 98.0527 69.3196C98.0527 69.9529 97.5409 70.4648 96.9092 70.4648C96.2776 70.4648 95.7641 69.9529 95.7641 69.3196Z" fill="#7F726D"/>
<path id="Vector_143" d="M95.7445 69.3196C95.7445 68.6864 96.2564 68.1729 96.888 68.1729C97.5197 68.1729 98.0332 68.6864 98.0332 69.3196C98.0332 69.9529 97.5197 70.4648 96.888 70.4648C96.2564 70.4648 95.7445 69.9529 95.7445 69.3196Z" fill="#7F726D"/>
<path id="Vector_144" d="M95.7211 69.3196C95.7211 68.6864 96.233 68.1729 96.8646 68.1729C97.4963 68.1729 98.0098 68.6864 98.0098 69.3196C98.0098 69.9529 97.4963 70.4648 96.8646 70.4648C96.233 70.4648 95.7211 69.9529 95.7211 69.3196Z" fill="#7F726D"/>
<path id="Vector_145" d="M95.696 69.3196C95.696 68.6864 96.2095 68.1729 96.8412 68.1729C97.4728 68.1729 97.9863 68.6864 97.9863 69.3196C97.9863 69.9529 97.4728 70.4648 96.8412 70.4648C96.2095 70.4648 95.696 69.9529 95.696 69.3196Z" fill="#7F726D"/>
<path id="Vector_146" d="M95.6781 69.3196C95.6781 68.6864 96.19 68.1729 96.8216 68.1729C97.4549 68.1729 97.9668 68.6864 97.9668 69.3196C97.9668 69.9529 97.4549 70.4648 96.8216 70.4648C96.19 70.4648 95.6781 69.9529 95.6781 69.3196Z" fill="#7F726D"/>
<path id="Vector_147" d="M95.6527 69.3196C95.6527 68.6864 96.1646 68.1729 96.7962 68.1729C97.4279 68.1729 97.9414 68.6864 97.9414 69.3196C97.9414 69.9529 97.4279 70.4648 96.7962 70.4648C96.1646 70.4648 95.6527 69.9529 95.6527 69.3196Z" fill="#7F726D"/>
<path id="Vector_148" d="M95.6313 69.3187C95.6313 68.6854 96.1431 68.1719 96.7748 68.1719C97.4064 68.1719 97.9199 68.6854 97.9199 69.3187C97.9199 69.9503 97.4064 70.4638 96.7748 70.4638C96.1431 70.4638 95.6313 69.9503 95.6313 69.3187Z" fill="#7F726D"/>
<path id="Vector_149" d="M95.6078 69.3187C95.6078 68.6854 96.1197 68.1719 96.7513 68.1719C97.383 68.1719 97.8965 68.6854 97.8965 69.3187C97.8965 69.9503 97.383 70.4638 96.7513 70.4638C96.1197 70.4638 95.6078 69.9503 95.6078 69.3187Z" fill="#7F726D"/>
<path id="Vector_150" d="M95.5863 69.3187C95.5863 68.6854 96.0982 68.1719 96.7298 68.1719C97.3631 68.1719 97.875 68.6854 97.875 69.3187C97.875 69.9503 97.3631 70.4638 96.7298 70.4638C96.0982 70.4638 95.5863 69.9503 95.5863 69.3187Z" fill="#7F726D"/>
<path id="Vector_151" d="M95.5629 69.3187C95.5629 68.6854 96.0748 68.1719 96.7064 68.1719C97.3397 68.1719 97.8516 68.6854 97.8516 69.3187C97.8516 69.9503 97.3397 70.4638 96.7064 70.4638C96.0748 70.4638 95.5629 69.9503 95.5629 69.3187Z" fill="#7F726D"/>
<path id="Vector_152" d="M95.5395 69.3151C95.5395 68.6834 96.0513 68.1699 96.683 68.1699C97.3146 68.1699 97.8281 68.6834 97.8281 69.3151C97.8281 69.9484 97.3146 70.4619 96.683 70.4619C96.0513 70.4619 95.5395 69.9484 95.5395 69.3151Z" fill="#7F726D"/>
<path id="Vector_153" d="M95.5199 69.3151C95.5199 68.6834 96.0318 68.1699 96.6634 68.1699C97.2967 68.1699 97.8086 68.6834 97.8086 69.3151C97.8086 69.9484 97.2967 70.4619 96.6634 70.4619C96.0318 70.4619 95.5199 69.9484 95.5199 69.3151Z" fill="#7F726D"/>
<path id="Vector_154" d="M95.4965 69.3151C95.4965 68.6834 96.0084 68.1699 96.64 68.1699C97.2733 68.1699 97.7852 68.6834 97.7852 69.3151C97.7852 69.9484 97.2733 70.4619 96.64 70.4619C96.0084 70.4619 95.4965 69.9484 95.4965 69.3151Z" fill="#7F726D"/>
<path id="Vector_155" d="M95.473 69.3141C95.473 68.6808 95.9849 68.1689 96.6166 68.1689C97.2498 68.1689 97.7617 68.6808 97.7617 69.3141C97.7617 69.9474 97.2498 70.4593 96.6166 70.4593C95.9849 70.4593 95.473 69.9474 95.473 69.3141Z" fill="#7F726D"/>
<path id="Vector_156" d="M95.4496 69.3141C95.4496 68.6808 95.9615 68.1689 96.5931 68.1689C97.2264 68.1689 97.7383 68.6808 97.7383 69.3141C97.7383 69.9474 97.2264 70.4593 96.5931 70.4593C95.9615 70.4593 95.4496 69.9474 95.4496 69.3141Z" fill="#7F726D"/>
<path id="Vector_157" d="M95.4281 69.3141C95.4281 68.6808 95.94 68.1689 96.5733 68.1689C97.2049 68.1689 97.7168 68.6808 97.7168 69.3141C97.7168 69.9474 97.2049 70.4593 96.5733 70.4593C95.94 70.4593 95.4281 69.9474 95.4281 69.3141Z" fill="#7F726D"/>
<path id="Vector_158" d="M95.4066 69.3118C95.4066 68.6786 95.9185 68.165 96.5502 68.165C97.1834 68.165 97.6953 68.6786 97.6953 69.3118C97.6953 69.9435 97.1834 70.457 96.5502 70.457C95.9185 70.457 95.4066 69.9435 95.4066 69.3118Z" fill="#7F726D"/>
<path id="Vector_159" d="M95.3832 69.3118C95.3832 68.6786 95.8951 68.165 96.5267 68.165C97.16 68.165 97.6719 68.6786 97.6719 69.3118C97.6719 69.9435 97.16 70.457 96.5267 70.457C95.8951 70.457 95.3832 69.9435 95.3832 69.3118Z" fill="#7F726D"/>
<path id="Vector_160" d="M95.3617 69.3082C95.3617 68.6766 95.8736 68.1631 96.5069 68.1631C97.1385 68.1631 97.6504 68.6766 97.6504 69.3082C97.6504 69.9415 97.1385 70.455 96.5069 70.455C95.8736 70.455 95.3617 69.9415 95.3617 69.3082Z" fill="#7F726D"/>
<path id="Vector_161" d="M95.3383 69.3082C95.3383 68.6766 95.8502 68.1631 96.4834 68.1631C97.1151 68.1631 97.627 68.6766 97.627 69.3082C97.627 69.9415 97.1151 70.455 96.4834 70.455C95.8502 70.455 95.3383 69.9415 95.3383 69.3082Z" fill="#7F726D"/>
<path id="Vector_162" d="M95.3148 69.3073C95.3148 68.674 95.8267 68.1621 96.46 68.1621C97.0916 68.1621 97.6035 68.674 97.6035 69.3073C97.6035 69.9405 97.0916 70.4541 96.46 70.4541C95.8267 70.4541 95.3148 69.9405 95.3148 69.3073Z" fill="#7F726D"/>
<path id="Vector_163" d="M95.2934 69.3073C95.2934 68.674 95.8052 68.1621 96.4369 68.1621C97.0702 68.1621 97.582 68.674 97.582 69.3073C97.582 69.9405 97.0702 70.4541 96.4369 70.4541C95.8052 70.4541 95.2934 69.9405 95.2934 69.3073Z" fill="#7F726D"/>
<path id="Vector_164" d="M95.2719 69.306C95.2719 68.6727 95.7838 68.1592 96.417 68.1592C97.0487 68.1592 97.5605 68.6727 97.5605 69.306C97.5605 69.9393 97.0487 70.4511 96.417 70.4511C95.7838 70.4511 95.2719 69.9393 95.2719 69.306Z" fill="#7F726D"/>
<path id="Vector_165" d="M95.2484 69.306C95.2484 68.6727 95.7603 68.1592 96.3936 68.1592C97.0252 68.1592 97.5371 68.6727 97.5371 69.306C97.5371 69.9393 97.0252 70.4511 96.3936 70.4511C95.7603 70.4511 95.2484 69.9393 95.2484 69.306Z" fill="#7F726D"/>
<path id="Vector_166" d="M95.225 69.304C95.225 68.6707 95.7369 68.1572 96.3702 68.1572C97.0018 68.1572 97.5137 68.6707 97.5137 69.304C97.5137 69.9357 97.0018 70.4492 96.3702 70.4492C95.7369 70.4492 95.225 69.9357 95.225 69.304Z" fill="#7F726D"/>
<path id="Vector_167" d="M95.2035 69.3004C95.2035 68.6688 95.717 68.1553 96.3487 68.1553C96.9803 68.1553 97.4922 68.6688 97.4922 69.3004C97.4922 69.9337 96.9803 70.4472 96.3487 70.4472C95.717 70.4472 95.2035 69.9337 95.2035 69.3004Z" fill="#7F726D"/>
<path id="Vector_168" d="M95.182 69.3004C95.182 68.6688 95.6939 68.1553 96.3272 68.1553C96.9588 68.1553 97.4707 68.6688 97.4707 69.3004C97.4707 69.9337 96.9588 70.4472 96.3272 70.4472C95.6939 70.4472 95.182 69.9337 95.182 69.3004Z" fill="#7F726D"/>
<path id="Vector_169" d="M95.1586 69.2985C95.1586 68.6652 95.6705 68.1533 96.3038 68.1533C96.9354 68.1533 97.4473 68.6652 97.4473 69.2985C97.4473 69.9318 96.9354 70.4436 96.3038 70.4436C95.6705 70.4436 95.1586 69.9318 95.1586 69.2985Z" fill="#7F726D"/>
<path id="Vector_170" d="M95.1371 69.2972C95.1371 68.6639 95.6506 68.1504 96.2823 68.1504C96.9139 68.1504 97.4258 68.6639 97.4258 69.2972C97.4258 69.9305 96.9139 70.4423 96.2823 70.4423C95.6506 70.4423 95.1371 69.9305 95.1371 69.2972Z" fill="#7F726D"/>
<path id="Vector_171" d="M95.1137 69.2936C95.1137 68.662 95.6272 68.1484 96.2588 68.1484C96.8905 68.1484 97.4023 68.662 97.4023 69.2936C97.4023 69.9269 96.8905 70.4404 96.2588 70.4404C95.6272 70.4404 95.1137 69.9269 95.1137 69.2936Z" fill="#7F726D"/>
<path id="Vector_172" d="M95.0922 69.2926C95.0922 68.6593 95.6057 68.1475 96.2373 68.1475C96.869 68.1475 97.3809 68.6593 97.3809 69.2926C97.3809 69.9259 96.869 70.4394 96.2373 70.4394C95.6057 70.4394 95.0922 69.9259 95.0922 69.2926Z" fill="#7F726D"/>
<path id="Vector_173" d="M95.0691 69.2926C95.0691 68.6593 95.5826 68.1475 96.2142 68.1475C96.8459 68.1475 97.3594 68.6593 97.3594 69.2926C97.3594 69.9259 96.8459 70.4394 96.2142 70.4394C95.5826 70.4394 95.0691 69.9259 95.0691 69.2926Z" fill="#7F726D"/>
<path id="Vector_174" d="M95.0456 69.2904C95.0456 68.6571 95.5591 68.1436 96.1908 68.1436C96.8224 68.1436 97.3359 68.6571 97.3359 69.2904C97.3359 69.9236 96.8224 70.4355 96.1908 70.4355C95.5591 70.4355 95.0456 69.9236 95.0456 69.2904Z" fill="#7F726D"/>
<path id="Vector_175" d="M95.0238 69.2894C95.0238 68.6561 95.5373 68.1426 96.169 68.1426C96.8006 68.1426 97.3125 68.6561 97.3125 69.2894C97.3125 69.921 96.8006 70.4345 96.169 70.4345C95.5373 70.4345 95.0238 69.921 95.0238 69.2894Z" fill="#7F726D"/>
<path id="Vector_176" d="M95.0043 69.2858C95.0043 68.6541 95.5162 68.1406 96.1478 68.1406C96.7795 68.1406 97.293 68.6541 97.293 69.2858C97.293 69.9191 96.7795 70.4326 96.1478 70.4326C95.5162 70.4326 95.0043 69.9191 95.0043 69.2858Z" fill="#7F726D"/>
<path id="Vector_177" d="M94.9809 69.2848C94.9809 68.6515 95.4927 68.1396 96.1244 68.1396C96.756 68.1396 97.2695 68.6515 97.2695 69.2848C97.2695 69.9181 96.756 70.4316 96.1244 70.4316C95.4927 70.4316 94.9809 69.9181 94.9809 69.2848Z" fill="#7F726D"/>
<path id="Vector_178" d="M94.9558 69.2825C94.9558 68.6493 95.4693 68.1357 96.1009 68.1357C96.7326 68.1357 97.2461 68.6493 97.2461 69.2825C97.2461 69.9158 96.7326 70.4277 96.1009 70.4277C95.4693 70.4277 94.9558 69.9158 94.9558 69.2825Z" fill="#7F726D"/>
<path id="Vector_179" d="M94.9359 69.2806C94.9359 68.6473 95.4478 68.1338 96.0795 68.1338C96.7127 68.1338 97.2246 68.6473 97.2246 69.2806C97.2246 69.9122 96.7127 70.4257 96.0795 70.4257C95.4478 70.4257 94.9359 69.9122 94.9359 69.2806Z" fill="#7F726D"/>
<path id="Vector_180" d="M94.9145 69.277C94.9145 68.6437 95.4263 68.1318 96.058 68.1318C96.6896 68.1318 97.2031 68.6437 97.2031 69.277C97.2031 69.9103 96.6896 70.4238 96.058 70.4238C95.4263 70.4238 94.9145 69.9103 94.9145 69.277Z" fill="#7F726D"/>
<path id="Vector_181" d="M94.891 69.276C94.891 68.6427 95.4029 68.1309 96.0345 68.1309C96.6662 68.1309 97.1797 68.6427 97.1797 69.276C97.1797 69.9093 96.6662 70.4212 96.0345 70.4212C95.4029 70.4212 94.891 69.9093 94.891 69.276Z" fill="#7F726D"/>
<path id="Vector_182" d="M94.8695 69.2747C94.8695 68.6414 95.3814 68.1279 96.013 68.1279C96.6463 68.1279 97.1582 68.6414 97.1582 69.2747C97.1582 69.9064 96.6463 70.4199 96.013 70.4199C95.3814 70.4199 94.8695 69.9064 94.8695 69.2747Z" fill="#7F726D"/>
<path id="Vector_183" d="M94.8461 69.2711C94.8461 68.6395 95.358 68.126 95.9896 68.126C96.6229 68.126 97.1348 68.6395 97.1348 69.2711C97.1348 69.9044 96.6229 70.4179 95.9896 70.4179C95.358 70.4179 94.8461 69.9044 94.8461 69.2711Z" fill="#7F726D"/>
<path id="Vector_184" d="M94.8227 69.2679C94.8227 68.6346 95.3345 68.1211 95.9662 68.1211C96.5995 68.1211 97.1113 68.6346 97.1113 69.2679C97.1113 69.9012 96.5995 70.413 95.9662 70.413C95.3345 70.413 94.8227 69.9012 94.8227 69.2679Z" fill="#7F726D"/>
<path id="Vector_185" d="M94.8031 69.2659C94.8031 68.6327 95.315 68.1191 95.9466 68.1191C96.5799 68.1191 97.0918 68.6327 97.0918 69.2659C97.0918 69.8976 96.5799 70.4111 95.9466 70.4111C95.315 70.4111 94.8031 69.8976 94.8031 69.2659Z" fill="#7F726D"/>
<path id="Vector_186" d="M94.7797 69.2633C94.7797 68.6317 95.2916 68.1182 95.9232 68.1182C96.5565 68.1182 97.0684 68.6317 97.0684 69.2633C97.0684 69.8966 96.5565 70.4101 95.9232 70.4101C95.2916 70.4101 94.7797 69.8966 94.7797 69.2633Z" fill="#7F726D"/>
<path id="Vector_187" d="M94.7563 69.2614C94.7563 68.6281 95.2681 68.1162 95.8998 68.1162C96.533 68.1162 97.0449 68.6281 97.0449 69.2614C97.0449 69.8946 96.533 70.4065 95.8998 70.4065C95.2681 70.4065 94.7563 69.8946 94.7563 69.2614Z" fill="#7F726D"/>
<path id="Vector_188" d="M94.7348 69.2565C94.7348 68.6248 95.2466 68.1113 95.8799 68.1113C96.5116 68.1113 97.0234 68.6248 97.0234 69.2565C97.0234 69.8898 96.5116 70.4033 95.8799 70.4033C95.2466 70.4033 94.7348 69.8898 94.7348 69.2565Z" fill="#7F726D"/>
<path id="Vector_189" d="M94.7113 69.2545C94.7113 68.6213 95.2232 68.1094 95.8565 68.1094C96.4881 68.1094 97 68.6213 97 69.2545C97 69.8878 96.4881 70.4013 95.8565 70.4013C95.2232 70.4013 94.7113 69.8878 94.7113 69.2545Z" fill="#7F726D"/>
<path id="Vector_190" d="M94.6918 69.2532C94.6918 68.62 95.2053 68.1064 95.837 68.1064C96.4686 68.1064 96.9805 68.62 96.9805 69.2532C96.9805 69.8865 96.4686 70.3984 95.837 70.3984C95.2053 70.3984 94.6918 69.8865 94.6918 69.2532Z" fill="#7F726D"/>
<path id="Vector_191" d="M94.6684 69.2477C94.6684 68.6161 95.1802 68.1025 95.8135 68.1025C96.4452 68.1025 96.957 68.6161 96.957 69.2477C96.957 69.881 96.4452 70.3945 95.8135 70.3945C95.1802 70.3945 94.6684 69.881 94.6684 69.2477Z" fill="#7F726D"/>
<path id="Vector_192" d="M94.6449 69.2467C94.6449 68.6134 95.1568 68.1016 95.7901 68.1016C96.4217 68.1016 96.9336 68.6134 96.9336 69.2467C96.9336 69.88 96.4217 70.3935 95.7901 70.3935C95.1568 70.3935 94.6449 69.88 94.6449 69.2467Z" fill="#7F726D"/>
<path id="Vector_193" d="M94.6234 69.2418C94.6234 68.6102 95.137 68.0967 95.7686 68.0967C96.4002 68.0967 96.9121 68.6102 96.9121 69.2418C96.9121 69.8751 96.4002 70.3886 95.7686 70.3886C95.137 70.3886 94.6234 69.8751 94.6234 69.2418Z" fill="#7F726D"/>
<path id="Vector_194" d="M94.602 69.2399C94.602 68.6066 95.1155 68.0947 95.7471 68.0947C96.3787 68.0947 96.8906 68.6066 96.8906 69.2399C96.8906 69.8732 96.3787 70.3867 95.7471 70.3867C95.1155 70.3867 94.602 69.8732 94.602 69.2399Z" fill="#7F726D"/>
<path id="Vector_195" d="M94.5788 69.2366C94.5788 68.6034 95.0923 68.0898 95.724 68.0898C96.3556 68.0898 96.8691 68.6034 96.8691 69.2366C96.8691 69.8683 96.3556 70.3818 95.724 70.3818C95.0923 70.3818 94.5788 69.8683 94.5788 69.2366Z" fill="#7F726D"/>
<path id="Vector_196" d="M94.5554 69.233C94.5554 68.6014 95.0689 68.0879 95.7005 68.0879C96.3322 68.0879 96.8457 68.6014 96.8457 69.233C96.8457 69.8663 96.3322 70.3798 95.7005 70.3798C95.0689 70.3798 94.5554 69.8663 94.5554 69.233Z" fill="#7F726D"/>
<path id="Vector_197" d="M94.5339 69.2298C94.5339 68.5965 95.0474 68.083 95.6791 68.083C96.3107 68.083 96.8242 68.5965 96.8242 69.2298C96.8242 69.8631 96.3107 70.375 95.6791 70.375C95.0474 70.375 94.5339 69.8631 94.5339 69.2298Z" fill="#7F726D"/>
<path id="Vector_198" d="M94.5141 69.2252C94.5141 68.5936 95.0259 68.0801 95.6576 68.0801C96.2892 68.0801 96.8027 68.5936 96.8027 69.2252C96.8027 69.8585 96.2892 70.372 95.6576 70.372C95.0259 70.372 94.5141 69.8585 94.5141 69.2252Z" fill="#7F726D"/>
<path id="Vector_199" d="M94.4906 69.2233C94.4906 68.59 95.0025 68.0781 95.6341 68.0781C96.2658 68.0781 96.7793 68.59 96.7793 69.2233C96.7793 69.8566 96.2658 70.3684 95.6341 70.3684C95.0025 70.3684 94.4906 69.8566 94.4906 69.2233Z" fill="#7F726D"/>
<path id="Vector_200" d="M94.4691 69.2184C94.4691 68.5868 94.981 68.0732 95.6127 68.0732C96.2459 68.0732 96.7578 68.5868 96.7578 69.2184C96.7578 69.8517 96.2459 70.3652 95.6127 70.3652C94.981 70.3652 94.4691 69.8517 94.4691 69.2184Z" fill="#7F726D"/>
<path id="Vector_201" d="M94.4457 69.2152C94.4457 68.5819 94.9576 68.0684 95.5892 68.0684C96.2225 68.0684 96.7344 68.5819 96.7344 69.2152C96.7344 69.8484 96.2225 70.3603 95.5892 70.3603C94.9576 70.3603 94.4457 69.8484 94.4457 69.2152Z" fill="#7F726D"/>
<path id="Vector_202" d="M94.4262 69.2106C94.4262 68.5789 94.938 68.0654 95.5713 68.0654C96.203 68.0654 96.7148 68.5789 96.7148 69.2106C96.7148 69.8439 96.203 70.3574 95.5713 70.3574C94.938 70.3574 94.4262 69.8439 94.4262 69.2106Z" fill="#7F726D"/>
<path id="Vector_203" d="M94.4027 69.2086C94.4027 68.5754 94.9146 68.0635 95.5462 68.0635C96.1795 68.0635 96.6914 68.5754 96.6914 69.2086C96.6914 69.8419 96.1795 70.3538 95.5462 70.3538C94.9146 70.3538 94.4027 69.8419 94.4027 69.2086Z" fill="#7F726D"/>
<path id="Vector_204" d="M94.3813 69.2038C94.3813 68.5721 94.8931 68.0586 95.5264 68.0586C96.158 68.0586 96.6699 68.5721 96.6699 69.2038C96.6699 69.837 96.158 70.3505 95.5264 70.3505C94.8931 70.3505 94.3813 69.837 94.3813 69.2038Z" fill="#7F726D"/>
<path id="Vector_205" d="M94.3578 69.2005C94.3578 68.5672 94.8697 68.0537 95.503 68.0537C96.1346 68.0537 96.6465 68.5672 96.6465 69.2005C96.6465 69.8338 96.1346 70.3457 95.503 70.3457C94.8697 70.3457 94.3578 69.8338 94.3578 69.2005Z" fill="#7F726D"/>
<path id="Vector_206" d="M94.3363 69.1959C94.3363 68.5643 94.8498 68.0508 95.4815 68.0508C96.1131 68.0508 96.625 68.5643 96.625 69.1959C96.625 69.8292 96.1131 70.3427 95.4815 70.3427C94.8498 70.3427 94.3363 69.8292 94.3363 69.1959Z" fill="#7F726D"/>
<path id="Vector_207" d="M94.3129 69.1927C94.3129 68.5594 94.8264 68.0459 95.458 68.0459C96.0897 68.0459 96.6016 68.5594 96.6016 69.1927C96.6016 69.826 96.0897 70.3379 95.458 70.3379C94.8264 70.3379 94.3129 69.826 94.3129 69.1927Z" fill="#7F726D"/>
<path id="Vector_208" d="M94.2917 69.1871C94.2917 68.5539 94.8052 68.042 95.4369 68.042C96.0685 68.042 96.582 68.5539 96.582 69.1871C96.582 69.8204 96.0685 70.3339 95.4369 70.3339C94.8052 70.3339 94.2917 69.8204 94.2917 69.1871Z" fill="#7F726D"/>
<path id="Vector_209" d="M94.2702 69.1839C94.2702 68.5506 94.7837 68.0371 95.4154 68.0371C96.047 68.0371 96.5605 68.5506 96.5605 69.1839C96.5605 69.8155 96.047 70.3291 95.4154 70.3291C94.7837 70.3291 94.2702 69.8155 94.2702 69.1839Z" fill="#7F726D"/>
<path id="Vector_210" d="M94.2504 69.1793C94.2504 68.5461 94.7623 68.0342 95.3939 68.0342C96.0255 68.0342 96.5391 68.5461 96.5391 69.1793C96.5391 69.8126 96.0255 70.3261 95.3939 70.3261C94.7623 70.3261 94.2504 69.8126 94.2504 69.1793Z" fill="#7F726D"/>
<path id="Vector_211" d="M94.227 69.1725C94.227 68.5409 94.7388 68.0273 95.3705 68.0273C96.0021 68.0273 96.5156 68.5409 96.5156 69.1725C96.5156 69.8058 96.0021 70.3193 95.3705 70.3193C94.7388 70.3193 94.227 69.8058 94.227 69.1725Z" fill="#7F726D"/>
<path id="Vector_212" d="M94.2055 69.1693C94.2055 68.536 94.7173 68.0225 95.349 68.0225C95.9823 68.0225 96.4941 68.536 96.4941 69.1693C96.4941 69.8009 95.9823 70.3144 95.349 70.3144C94.7173 70.3144 94.2055 69.8009 94.2055 69.1693Z" fill="#7F726D"/>
<path id="Vector_213" d="M94.182 69.1647C94.182 68.5314 94.6939 68.0195 95.3255 68.0195C95.9588 68.0195 96.4707 68.5314 96.4707 69.1647C96.4707 69.798 95.9588 70.3115 95.3255 70.3115C94.6939 70.3115 94.182 69.798 94.182 69.1647Z" fill="#7F726D"/>
<path id="Vector_214" d="M94.1605 69.1614C94.1605 68.5282 94.6724 68.0146 95.3057 68.0146C95.9373 68.0146 96.4492 68.5282 96.4492 69.1614C96.4492 69.7931 95.9373 70.3066 95.3057 70.3066C94.6724 70.3066 94.1605 69.7931 94.1605 69.1614Z" fill="#7F726D"/>
<path id="Vector_215" d="M94.1371 69.1546C94.1371 68.5213 94.649 68.0078 95.2806 68.0078C95.9139 68.0078 96.4258 68.5213 96.4258 69.1546C96.4258 69.7879 95.9139 70.2998 95.2806 70.2998C94.649 70.2998 94.1371 69.7879 94.1371 69.1546Z" fill="#7F726D"/>
<path id="Vector_216" d="M94.1156 69.15C94.1156 68.5168 94.6275 68.0049 95.2608 68.0049C95.8924 68.0049 96.4043 68.5168 96.4043 69.15C96.4043 69.7833 95.8924 70.2968 95.2608 70.2968C94.6275 70.2968 94.1156 69.7833 94.1156 69.15Z" fill="#7F726D"/>
<path id="Vector_217" d="M94.0941 69.1432C94.0941 68.5116 94.606 67.998 95.2393 67.998C95.8709 67.998 96.3828 68.5116 96.3828 69.1432C96.3828 69.7765 95.8709 70.29 95.2393 70.29C94.606 70.29 94.0941 69.7765 94.0941 69.1432Z" fill="#7F726D"/>
<path id="Vector_218" d="M94.0727 69.14C94.0727 68.5067 94.5862 67.9932 95.2178 67.9932C95.8495 67.9932 96.3613 68.5067 96.3613 69.14C96.3613 69.7732 95.8495 70.2851 95.2178 70.2851C94.5862 70.2851 94.0727 69.7732 94.0727 69.14Z" fill="#7F726D"/>
<path id="Vector_219" d="M94.0531 69.1344C94.0531 68.5028 94.565 67.9893 95.1966 67.9893C95.8283 67.9893 96.3418 68.5028 96.3418 69.1344C96.3418 69.7677 95.8283 70.2812 95.1966 70.2812C94.565 70.2812 94.0531 69.7677 94.0531 69.1344Z" fill="#7F726D"/>
<path id="Vector_220" d="M94.028 69.1286C94.028 68.4969 94.5416 67.9834 95.1732 67.9834C95.8048 67.9834 96.3184 68.4969 96.3184 69.1286C96.3184 69.7618 95.8048 70.2754 95.1732 70.2754C94.5416 70.2754 94.028 69.7618 94.028 69.1286Z" fill="#7F726D"/>
<path id="Vector_221" d="M94.0082 69.1234C94.0082 68.4901 94.5201 67.9766 95.1517 67.9766C95.785 67.9766 96.2969 68.4901 96.2969 69.1234C96.2969 69.755 95.785 70.2685 95.1517 70.2685C94.5201 70.2685 94.0082 69.755 94.0082 69.1234Z" fill="#7F726D"/>
<path id="Vector_222" d="M93.9848 69.1188C93.9848 68.4855 94.4966 67.9736 95.1283 67.9736C95.7599 67.9736 96.2734 68.4855 96.2734 69.1188C96.2734 69.7521 95.7599 70.2639 95.1283 70.2639C94.4966 70.2639 93.9848 69.7521 93.9848 69.1188Z" fill="#7F726D"/>
<path id="Vector_223" d="M93.9652 69.112C93.9652 68.4787 94.4771 67.9668 95.1087 67.9668C95.742 67.9668 96.2539 68.4787 96.2539 69.112C96.2539 69.7452 95.742 70.2588 95.1087 70.2588C94.4771 70.2588 93.9652 69.7452 93.9652 69.112Z" fill="#7F726D"/>
<path id="Vector_224" d="M93.9438 69.1051C93.9438 68.4735 94.4556 67.96 95.0889 67.96C95.7205 67.96 96.2324 68.4735 96.2324 69.1051C96.2324 69.7384 95.7205 70.2519 95.0889 70.2519C94.4556 70.2519 93.9438 69.7384 93.9438 69.1051Z" fill="#7F726D"/>
<path id="Vector_225" d="M93.9203 69.1019C93.9203 68.4686 94.4322 67.9551 95.0655 67.9551C95.6971 67.9551 96.209 68.4686 96.209 69.1019C96.209 69.7352 95.6971 70.247 95.0655 70.247C94.4322 70.247 93.9203 69.7352 93.9203 69.1019Z" fill="#7F726D"/>
<path id="Vector_226" d="M93.8988 69.096C93.8988 68.4627 94.4123 67.9492 95.044 67.9492C95.6756 67.9492 96.1875 68.4627 96.1875 69.096C96.1875 69.7293 95.6756 70.2412 95.044 70.2412C94.4123 70.2412 93.8988 69.7293 93.8988 69.096Z" fill="#7F726D"/>
<path id="Vector_227" d="M93.8777 69.0885C93.8777 68.4552 94.3912 67.9434 95.0228 67.9434C95.6545 67.9434 96.168 68.4552 96.168 69.0885C96.168 69.7218 95.6545 70.2353 95.0228 70.2353C94.3912 70.2353 93.8777 69.7218 93.8777 69.0885Z" fill="#7F726D"/>
<path id="Vector_228" d="M93.8542 69.0827C93.8542 68.451 94.3677 67.9375 94.9994 67.9375C95.631 67.9375 96.1445 68.451 96.1445 69.0827C96.1445 69.7159 95.631 70.2295 94.9994 70.2295C94.3677 70.2295 93.8542 69.7159 93.8542 69.0827Z" fill="#7F726D"/>
<path id="Vector_229" d="M93.8344 69.0758C93.8344 68.4442 94.3463 67.9307 94.9779 67.9307C95.6112 67.9307 96.123 68.4442 96.123 69.0758C96.123 69.7091 95.6112 70.2226 94.9779 70.2226C94.3463 70.2226 93.8344 69.7091 93.8344 69.0758Z" fill="#7F726D"/>
<path id="Vector_230" d="M93.8129 69.0706C93.8129 68.4373 94.3248 67.9238 94.9564 67.9238C95.5897 67.9238 96.1016 68.4373 96.1016 69.0706C96.1016 69.7023 95.5897 70.2158 94.9564 70.2158C94.3248 70.2158 93.8129 69.7023 93.8129 69.0706Z" fill="#7F726D"/>
<path id="Vector_231" d="M93.7895 69.0648C93.7895 68.4315 94.3013 67.918 94.933 67.918C95.5663 67.918 96.0781 68.4315 96.0781 69.0648C96.0781 69.698 95.5663 70.2099 94.933 70.2099C94.3013 70.2099 93.7895 69.698 93.7895 69.0648Z" fill="#7F726D"/>
<path id="Vector_232" d="M93.7699 69.0579C93.7699 68.4246 94.2818 67.9111 94.9151 67.9111C95.5467 67.9111 96.0586 68.4246 96.0586 69.0579C96.0586 69.6912 95.5467 70.2031 94.9151 70.2031C94.2818 70.2031 93.7699 69.6912 93.7699 69.0579Z" fill="#7F726D"/>
<path id="Vector_233" d="M93.7465 69.0514C93.7465 68.4181 94.26 67.9062 94.8916 67.9062C95.5233 67.9062 96.0352 68.4181 96.0352 69.0514C96.0352 69.6847 95.5233 70.1982 94.8916 70.1982C94.26 70.1982 93.7465 69.6847 93.7465 69.0514Z" fill="#7F726D"/>
<path id="Vector_234" d="M93.727 69.0446C93.727 68.4129 94.2388 67.8994 94.8705 67.8994C95.5021 67.8994 96.0156 68.4129 96.0156 69.0446C96.0156 69.6779 95.5021 70.1914 94.8705 70.1914C94.2388 70.1914 93.727 69.6779 93.727 69.0446Z" fill="#7F726D"/>
<path id="Vector_235" d="M93.7038 69.0368C93.7038 68.4035 94.2173 67.8916 94.849 67.8916C95.4806 67.8916 95.9941 68.4035 95.9941 69.0368C95.9941 69.67 95.4806 70.1836 94.849 70.1836C94.2173 70.1836 93.7038 69.67 93.7038 69.0368Z" fill="#7F726D"/>
<path id="Vector_236" d="M93.684 69.0299C93.684 68.3983 94.1959 67.8848 94.8275 67.8848C95.4608 67.8848 95.9727 68.3983 95.9727 69.0299C95.9727 69.6632 95.4608 70.1767 94.8275 70.1767C94.1959 70.1767 93.684 69.6632 93.684 69.0299Z" fill="#7F726D"/>
<path id="Vector_237" d="M93.6625 69.0231C93.6625 68.3914 94.1744 67.8779 94.806 67.8779C95.4393 67.8779 95.9512 68.3914 95.9512 69.0231C95.9512 69.6564 95.4393 70.1699 94.806 70.1699C94.1744 70.1699 93.6625 69.6564 93.6625 69.0231Z" fill="#7F726D"/>
<path id="Vector_238" d="M93.641 69.0153C93.641 68.3836 94.1529 67.8701 94.7862 67.8701C95.4178 67.8701 95.9297 68.3836 95.9297 69.0153C95.9297 69.6486 95.4178 70.1621 94.7862 70.1621C94.1529 70.1621 93.641 69.6486 93.641 69.0153Z" fill="#7F726D"/>
<path id="Vector_239" d="M93.6198 69.0101C93.6198 68.3768 94.1334 67.8633 94.765 67.8633C95.3966 67.8633 95.9102 68.3768 95.9102 69.0101C95.9102 69.6417 95.3966 70.1552 94.765 70.1552C94.1334 70.1552 93.6198 69.6417 93.6198 69.0101Z" fill="#7F726D"/>
<path id="Vector_240" d="M93.5961 69.0032C93.5961 68.37 94.1096 67.8564 94.7413 67.8564C95.3729 67.8564 95.8848 68.37 95.8848 69.0032C95.8848 69.6349 95.3729 70.1484 94.7413 70.1484C94.1096 70.1484 93.5961 69.6349 93.5961 69.0032Z" fill="#7F726D"/>
<path id="Vector_241" d="M93.5766 68.9954C93.5766 68.3621 94.0884 67.8486 94.7201 67.8486C95.3517 67.8486 95.8652 68.3621 95.8652 68.9954C95.8652 69.6271 95.3517 70.1406 94.7201 70.1406C94.0884 70.1406 93.5766 69.6271 93.5766 68.9954Z" fill="#7F726D"/>
<path id="Vector_242" d="M93.5551 68.986C93.5551 68.3543 94.067 67.8408 94.6986 67.8408C95.3319 67.8408 95.8438 68.3543 95.8438 68.986C95.8438 69.6193 95.3319 70.1328 94.6986 70.1328C94.067 70.1328 93.5551 69.6193 93.5551 68.986Z" fill="#7F726D"/>
<path id="Vector_243" d="M93.5336 68.9808C93.5336 68.3475 94.0455 67.834 94.6788 67.834C95.3104 67.834 95.8223 68.3475 95.8223 68.9808C95.8223 69.6124 95.3104 70.1259 94.6788 70.1259C94.0455 70.1259 93.5336 69.6124 93.5336 68.9808Z" fill="#7F726D"/>
<path id="Vector_244" d="M93.5121 68.9704C93.5121 68.3387 94.0256 67.8252 94.6573 67.8252C95.2889 67.8252 95.8008 68.3387 95.8008 68.9704C95.8008 69.6036 95.2889 70.1171 94.6573 70.1171C94.0256 70.1171 93.5121 69.6036 93.5121 68.9704Z" fill="#7F726D"/>
<path id="Vector_245" d="M93.4909 68.9625C93.4909 68.3309 94.0045 67.8174 94.6361 67.8174C95.2677 67.8174 95.7812 68.3309 95.7812 68.9625C95.7812 69.5958 95.2677 70.1093 94.6361 70.1093C94.0045 70.1093 93.4909 69.5958 93.4909 68.9625Z" fill="#7F726D"/>
<path id="Vector_246" d="M93.4711 68.9573C93.4711 68.3241 93.983 67.8105 94.6146 67.8105C95.2462 67.8105 95.7598 68.3241 95.7598 68.9573C95.7598 69.589 95.2462 70.1025 94.6146 70.1025C93.983 70.1025 93.4711 69.589 93.4711 68.9573Z" fill="#7F726D"/>
<path id="Vector_247" d="M93.4516 68.9479C93.4516 68.3162 93.9634 67.8027 94.5951 67.8027C95.2284 67.8027 95.7402 68.3162 95.7402 68.9479C95.7402 69.5812 95.2284 70.0947 94.5951 70.0947C93.9634 70.0947 93.4516 69.5812 93.4516 68.9479Z" fill="#7F726D"/>
<path id="Vector_248" d="M93.4301 68.9401C93.4301 68.3084 93.942 67.7949 94.5752 67.7949C95.2069 67.7949 95.7188 68.3084 95.7188 68.9401C95.7188 69.5734 95.2069 70.0869 94.5752 70.0869C93.942 70.0869 93.4301 69.5734 93.4301 68.9401Z" fill="#7F726D"/>
<path id="Vector_249" d="M93.4066 68.9313C93.4066 68.298 93.9202 67.7861 94.5518 67.7861C95.1834 67.7861 95.6953 68.298 95.6953 68.9313C95.6953 69.5646 95.1834 70.0781 94.5518 70.0781C93.9202 70.0781 93.4066 69.5646 93.4066 68.9313Z" fill="#7F726D"/>
<path id="Vector_250" d="M93.3891 68.9235C93.3891 68.2902 93.9009 67.7783 94.5326 67.7783C95.1642 67.7783 95.6777 68.2902 95.6777 68.9235C95.6777 69.5568 95.1642 70.0703 94.5326 70.0703C93.9009 70.0703 93.3891 69.5568 93.3891 68.9235Z" fill="#7F726D"/>
<path id="Vector_251" d="M93.3676 68.9154C93.3676 68.2821 93.8795 67.7686 94.5111 67.7686C95.1444 67.7686 95.6562 68.2821 95.6562 68.9154C95.6562 69.5486 95.1444 70.0605 94.5111 70.0605C93.8795 70.0605 93.3676 69.5486 93.3676 68.9154Z" fill="#7F726D"/>
<path id="Vector_252" d="M93.3441 68.9066C93.3441 68.2733 93.856 67.7598 94.4893 67.7598C95.1209 67.7598 95.6328 68.2733 95.6328 68.9066C95.6328 69.5398 95.1209 70.0517 94.4893 70.0517C93.856 70.0517 93.3441 69.5398 93.3441 68.9066Z" fill="#7F726D"/>
<path id="Vector_253" d="M93.3246 68.8988C93.3246 68.2655 93.8381 67.752 94.4698 67.752C95.1014 67.752 95.6133 68.2655 95.6133 68.8988C95.6133 69.5304 95.1014 70.0439 94.4698 70.0439C93.8381 70.0439 93.3246 69.5304 93.3246 68.8988Z" fill="#7F726D"/>
<path id="Vector_254" d="M93.3034 68.89C93.3034 68.2567 93.817 67.7432 94.4486 67.7432C95.0802 67.7432 95.5938 68.2567 95.5938 68.89C95.5938 69.5216 95.0802 70.0351 94.4486 70.0351C93.817 70.0351 93.3034 69.5216 93.3034 68.89Z" fill="#7F726D"/>
<path id="Vector_255" d="M93.2836 68.8805C93.2836 68.2489 93.7955 67.7354 94.4271 67.7354C95.0587 67.7354 95.5723 68.2489 95.5723 68.8805C95.5723 69.5138 95.0587 70.0273 94.4271 70.0273C93.7955 70.0273 93.2836 69.5138 93.2836 68.8805Z" fill="#7F726D"/>
<path id="Vector_256" d="M93.2621 68.8727C93.2621 68.2411 93.774 67.7275 94.4056 67.7275C95.0389 67.7275 95.5508 68.2411 95.5508 68.8727C95.5508 69.506 95.0389 70.0195 94.4056 70.0195C93.774 70.0195 93.2621 69.506 93.2621 68.8727Z" fill="#7F726D"/>
<path id="Vector_257" d="M93.2409 68.8626C93.2409 68.2293 93.7545 67.7158 94.3861 67.7158C95.0177 67.7158 95.5312 68.2293 95.5312 68.8626C95.5312 69.4959 95.0177 70.0078 94.3861 70.0078C93.7545 70.0078 93.2409 69.4959 93.2409 68.8626Z" fill="#7F726D"/>
<path id="Vector_258" d="M93.223 68.8548C93.223 68.2215 93.7349 67.708 94.3666 67.708C94.9982 67.708 95.5117 68.2215 95.5117 68.8548C95.5117 69.4881 94.9982 70 94.3666 70C93.7349 70 93.223 69.4881 93.223 68.8548Z" fill="#7F726D"/>
<path id="Vector_259" d="M93.2016 68.8424C93.2016 68.2108 93.7134 67.6973 94.3451 67.6973C94.9784 67.6973 95.4902 68.2108 95.4902 68.8424C95.4902 69.4757 94.9784 69.9892 94.3451 69.9892C93.7134 69.9892 93.2016 69.4757 93.2016 68.8424Z" fill="#7F726D"/>
<path id="Vector_260" d="M93.1801 68.8346C93.1801 68.203 93.692 67.6895 94.3252 67.6895C94.9569 67.6895 95.4688 68.203 95.4688 68.8346C95.4688 69.4679 94.9569 69.9814 94.3252 69.9814C93.692 69.9814 93.1801 69.4679 93.1801 68.8346Z" fill="#7F726D"/>
<path id="Vector_261" d="M93.1625 68.8258C93.1625 68.1925 93.6744 67.6807 94.306 67.6807C94.9377 67.6807 95.4512 68.1925 95.4512 68.8258C95.4512 69.4591 94.9377 69.9726 94.306 69.9726C93.6744 69.9726 93.1625 69.4591 93.1625 68.8258Z" fill="#7F726D"/>
<path id="Vector_262" d="M93.141 68.8167C93.141 68.1834 93.6529 67.6699 94.2845 67.6699C94.9178 67.6699 95.4297 68.1834 95.4297 68.8167C95.4297 69.45 94.9178 69.9619 94.2845 69.9619C93.6529 69.9619 93.141 69.45 93.141 68.8167Z" fill="#7F726D"/>
<path id="Vector_263" d="M93.1195 68.8053C93.1195 68.1737 93.6314 67.6602 94.2647 67.6602C94.8963 67.6602 95.4082 68.1737 95.4082 68.8053C95.4082 69.4386 94.8963 69.9521 94.2647 69.9521C93.6314 69.9521 93.1195 69.4386 93.1195 68.8053Z" fill="#7F726D"/>
<path id="Vector_264" d="M93.102 68.7965C93.102 68.1649 93.6138 67.6514 94.2455 67.6514C94.8771 67.6514 95.3906 68.1649 95.3906 68.7965C95.3906 69.4298 94.8771 69.9433 94.2455 69.9433C93.6138 69.9433 93.102 69.4298 93.102 68.7965Z" fill="#7F726D"/>
<path id="Vector_265" d="M93.0785 68.7864C93.0785 68.1532 93.5904 67.6396 94.222 67.6396C94.8553 67.6396 95.3672 68.1532 95.3672 68.7864C95.3672 69.4197 94.8553 69.9316 94.222 69.9316C93.5904 69.9316 93.0785 69.4197 93.0785 68.7864Z" fill="#7F726D"/>
<path id="Vector_266" d="M93.059 68.7777C93.059 68.1444 93.5709 67.6309 94.2041 67.6309C94.8358 67.6309 95.3477 68.1444 95.3477 68.7777C95.3477 69.4093 94.8358 69.9228 94.2041 69.9228C93.5709 69.9228 93.059 69.4093 93.059 68.7777Z" fill="#7F726D"/>
<path id="Vector_267" d="M93.0398 68.7672C93.0398 68.1356 93.5533 67.6221 94.1849 67.6221C94.8166 67.6221 95.3301 68.1356 95.3301 68.7672C95.3301 69.4005 94.8166 69.914 94.1849 69.914C93.5533 69.914 93.0398 69.4005 93.0398 68.7672Z" fill="#7F726D"/>
<path id="Vector_268" d="M93.018 68.7575C93.018 68.1242 93.5298 67.6123 94.1615 67.6123C94.7948 67.6123 95.3066 68.1242 95.3066 68.7575C95.3066 69.3907 94.7948 69.9026 94.1615 69.9026C93.5298 69.9026 93.018 69.3907 93.018 68.7575Z" fill="#7F726D"/>
<path id="Vector_269" d="M93.0004 68.7474C93.0004 68.1141 93.5123 67.6006 94.1455 67.6006C94.7772 67.6006 95.2891 68.1141 95.2891 68.7474C95.2891 69.379 94.7772 69.8925 94.1455 69.8925C93.5123 69.8925 93.0004 69.379 93.0004 68.7474Z" fill="#7F726D"/>
<path id="Vector_270" d="M92.9773 68.736C92.9773 68.1027 93.4908 67.5908 94.1224 67.5908C94.7541 67.5908 95.2676 68.1027 95.2676 68.736C95.2676 69.3693 94.7541 69.8828 94.1224 69.8828C93.4908 69.8828 92.9773 69.3693 92.9773 68.736Z" fill="#7F726D"/>
<path id="Vector_271" d="M92.9613 68.7259C92.9613 68.0926 93.4732 67.5791 94.1048 67.5791C94.7381 67.5791 95.25 68.0926 95.25 68.7259C95.25 69.3592 94.7381 69.8711 94.1048 69.8711C93.4732 69.8711 92.9613 69.3592 92.9613 68.7259Z" fill="#7F726D"/>
<path id="Vector_272" d="M92.9379 68.7145C92.9379 68.0829 93.4498 67.5693 94.083 67.5693C94.7147 67.5693 95.2266 68.0829 95.2266 68.7145C95.2266 69.3478 94.7147 69.8613 94.083 69.8613C93.4498 69.8613 92.9379 69.3478 92.9379 68.7145Z" fill="#7F726D"/>
<path id="Vector_273" d="M92.9203 68.7047C92.9203 68.0714 93.4322 67.5596 94.0638 67.5596C94.6955 67.5596 95.209 68.0714 95.209 68.7047C95.209 69.338 94.6955 69.8499 94.0638 69.8499C93.4322 69.8499 92.9203 69.338 92.9203 68.7047Z" fill="#7F726D"/>
<path id="Vector_274" d="M92.9008 68.692C92.9008 68.0604 93.4127 67.5469 94.0459 67.5469C94.6776 67.5469 95.1895 68.0604 95.1895 68.692C95.1895 69.3253 94.6776 69.8388 94.0459 69.8388C93.4127 69.8388 92.9008 69.3253 92.9008 68.692Z" fill="#7F726D"/>
<path id="Vector_275" d="M92.8796 68.682C92.8796 68.0487 93.3931 67.5352 94.0248 67.5352C94.6564 67.5352 95.1699 68.0487 95.1699 68.682C95.1699 69.3152 94.6564 69.8271 94.0248 69.8271C93.3931 69.8271 92.8796 69.3152 92.8796 68.682Z" fill="#7F726D"/>
<path id="Vector_276" d="M92.8617 68.6722C92.8617 68.0389 93.3736 67.5254 94.0052 67.5254C94.6385 67.5254 95.1504 68.0389 95.1504 68.6722C95.1504 69.3038 94.6385 69.8173 94.0052 69.8173C93.3736 69.8173 92.8617 69.3038 92.8617 68.6722Z" fill="#7F726D"/>
<path id="Vector_277" d="M92.8425 68.6608C92.8425 68.0275 93.356 67.5156 93.9877 67.5156C94.6193 67.5156 95.1328 68.0275 95.1328 68.6608C95.1328 69.2941 94.6193 69.8076 93.9877 69.8076C93.356 69.8076 92.8425 69.2941 92.8425 68.6608Z" fill="#7F726D"/>
<path id="Vector_278" d="M92.8227 68.6481C92.8227 68.0164 93.3345 67.5029 93.9662 67.5029C94.5978 67.5029 95.1113 68.0164 95.1113 68.6481C95.1113 69.2814 94.5978 69.7949 93.9662 69.7949C93.3345 69.7949 92.8227 69.2814 92.8227 68.6481Z" fill="#7F726D"/>
<path id="Vector_279" d="M92.8012 68.6373C92.8012 68.0041 93.313 67.4922 93.9463 67.4922C94.578 67.4922 95.0898 68.0041 95.0898 68.6373C95.0898 69.2706 94.578 69.7841 93.9463 69.7841C93.313 69.7841 92.8012 69.2706 92.8012 68.6373Z" fill="#7F726D"/>
<path id="Vector_280" d="M92.7855 68.6246C92.7855 67.993 93.2974 67.4795 93.9291 67.4795C94.5607 67.4795 95.0742 67.993 95.0742 68.6246C95.0742 69.2579 94.5607 69.7714 93.9291 69.7714C93.2974 69.7714 92.7855 69.2579 92.7855 68.6246Z" fill="#7F726D"/>
<path id="Vector_281" d="M92.7641 68.6149C92.7641 67.9816 93.2759 67.4697 93.9092 67.4697C94.5409 67.4697 95.0527 67.9816 95.0527 68.6149C95.0527 69.2482 94.5409 69.76 93.9092 69.76C93.2759 69.76 92.7641 69.2482 92.7641 68.6149Z" fill="#7F726D"/>
<path id="Vector_282" d="M92.7465 68.6012C92.7465 67.9696 93.2584 67.4561 93.89 67.4561C94.5216 67.4561 95.0352 67.9696 95.0352 68.6012C95.0352 69.2345 94.5216 69.748 93.89 69.748C93.2584 69.748 92.7465 69.2345 92.7465 68.6012Z" fill="#7F726D"/>
<path id="Vector_283" d="M92.727 68.5921C92.727 67.9588 93.2388 67.4453 93.8721 67.4453C94.5038 67.4453 95.0156 67.9588 95.0156 68.5921C95.0156 69.2254 94.5038 69.7373 93.8721 69.7373C93.2388 69.7373 92.727 69.2254 92.727 68.5921Z" fill="#7F726D"/>
<path id="Vector_284" d="M92.7094 68.5788C92.7094 67.9471 93.2212 67.4336 93.8529 67.4336C94.4845 67.4336 94.998 67.9471 94.998 68.5788C94.998 69.212 94.4845 69.7255 93.8529 69.7255C93.2212 69.7255 92.7094 69.212 92.7094 68.5788Z" fill="#7F726D"/>
<path id="Vector_285" d="M92.6879 68.5677C92.6879 67.9344 93.1998 67.4209 93.833 67.4209C94.4647 67.4209 94.9766 67.9344 94.9766 68.5677C94.9766 69.1993 94.4647 69.7129 93.833 69.7129C93.1998 69.7129 92.6879 69.1993 92.6879 68.5677Z" fill="#7F726D"/>
<path id="Vector_286" d="M92.6723 68.554C92.6723 67.9207 93.1841 67.4072 93.8158 67.4072C94.4474 67.4072 94.9609 67.9207 94.9609 68.554C94.9609 69.1873 94.4474 69.6992 93.8158 69.6992C93.1841 69.6992 92.6723 69.1873 92.6723 68.554Z" fill="#7F726D"/>
<path id="Vector_287" d="M92.6508 68.5443C92.6508 67.911 93.1627 67.3975 93.7959 67.3975C94.4276 67.3975 94.9395 67.911 94.9395 68.5443C94.9395 69.1759 94.4276 69.6894 93.7959 69.6894C93.1627 69.6894 92.6508 69.1759 92.6508 68.5443Z" fill="#7F726D"/>
<path id="Vector_288" d="M92.6332 68.5306C92.6332 67.8973 93.1451 67.3838 93.7767 67.3838C94.4084 67.3838 94.9219 67.8973 94.9219 68.5306C94.9219 69.1639 94.4084 69.6757 93.7767 69.6757C93.1451 69.6757 92.6332 69.1639 92.6332 68.5306Z" fill="#7F726D"/>
<path id="Vector_289" d="M92.6137 68.5182C92.6137 67.8849 93.1255 67.373 93.7588 67.373C94.3905 67.373 94.9023 67.8849 94.9023 68.5182C94.9023 69.1515 94.3905 69.665 93.7588 69.665C93.1255 69.665 92.6137 69.1515 92.6137 68.5182Z" fill="#7F726D"/>
<path id="Vector_290" d="M92.5961 68.5045C92.5961 67.8729 93.108 67.3594 93.7396 67.3594C94.3712 67.3594 94.8848 67.8729 94.8848 68.5045C94.8848 69.1378 94.3712 69.6513 93.7396 69.6513C93.108 69.6513 92.5961 69.1378 92.5961 68.5045Z" fill="#7F726D"/>
<path id="Vector_291" d="M92.5766 68.4935C92.5766 67.8602 93.0884 67.3467 93.7217 67.3467C94.3534 67.3467 94.8652 67.8602 94.8652 68.4935C94.8652 69.1268 94.3534 69.6386 93.7217 69.6386C93.0884 69.6386 92.5766 69.1268 92.5766 68.4935Z" fill="#7F726D"/>
<path id="Vector_292" d="M92.559 68.4801C92.559 67.8468 93.0709 67.335 93.7025 67.335C94.3358 67.335 94.8477 67.8468 94.8477 68.4801C94.8477 69.1134 94.3358 69.6269 93.7025 69.6269C93.0709 69.6269 92.559 69.1134 92.559 68.4801Z" fill="#7F726D"/>
<path id="Vector_293" d="M92.5398 68.4655C92.5398 67.8322 93.0533 67.3203 93.6849 67.3203C94.3166 67.3203 94.8301 67.8322 94.8301 68.4655C94.8301 69.0987 94.3166 69.6123 93.6849 69.6123C93.0533 69.6123 92.5398 69.0987 92.5398 68.4655Z" fill="#7F726D"/>
<path id="Vector_294" d="M92.5219 68.4544C92.5219 67.8211 93.0338 67.3076 93.6654 67.3076C94.2987 67.3076 94.8105 67.8211 94.8105 68.4544C94.8105 69.0861 94.2987 69.5996 93.6654 69.5996C93.0338 69.5996 92.5219 69.0861 92.5219 68.4544Z" fill="#7F726D"/>
<path id="Vector_295" d="M92.5063 68.4407C92.5063 67.8075 93.0181 67.2939 93.6498 67.2939C94.2814 67.2939 94.7949 67.8075 94.7949 68.4407C94.7949 69.074 94.2814 69.5859 93.6498 69.5859C93.0181 69.5859 92.5063 69.074 92.5063 68.4407Z" fill="#7F726D"/>
<path id="Vector_296" d="M92.4848 68.4274C92.4848 67.7941 92.9966 67.2822 93.6299 67.2822C94.2616 67.2822 94.7734 67.7941 94.7734 68.4274C94.7734 69.0607 94.2616 69.5742 93.6299 69.5742C92.9966 69.5742 92.4848 69.0607 92.4848 68.4274Z" fill="#7F726D"/>
<path id="Vector_297" d="M92.4691 68.4127C92.4691 67.7795 92.981 67.2676 93.6127 67.2676C94.2459 67.2676 94.7578 67.7795 94.7578 68.4127C94.7578 69.046 94.2459 69.5595 93.6127 69.5595C92.981 69.5595 92.4691 69.046 92.4691 68.4127Z" fill="#7F726D"/>
<path id="Vector_298" d="M92.4499 68.4017C92.4499 67.7684 92.9634 67.2549 93.5951 67.2549C94.2267 67.2549 94.7402 67.7684 94.7402 68.4017C94.7402 69.0333 94.2267 69.5468 93.5951 69.5468C92.9634 69.5468 92.4499 69.0333 92.4499 68.4017Z" fill="#7F726D"/>
<path id="Vector_299" d="M92.432 68.387C92.432 67.7538 92.9439 67.2402 93.5772 67.2402C94.2088 67.2402 94.7207 67.7538 94.7207 68.387C94.7207 69.0187 94.2088 69.5322 93.5772 69.5322C92.9439 69.5322 92.432 69.0187 92.432 68.387Z" fill="#7F726D"/>
<path id="Vector_300" d="M92.4145 68.3734C92.4145 67.7401 92.9263 67.2266 93.558 67.2266C94.1912 67.2266 94.7031 67.7401 94.7031 68.3734C94.7031 69.0066 94.1912 69.5185 93.558 69.5185C92.9263 69.5185 92.4145 69.0066 92.4145 68.3734Z" fill="#7F726D"/>
<path id="Vector_301" d="M92.3988 68.3587C92.3988 67.7254 92.9107 67.2119 93.5423 67.2119C94.174 67.2119 94.6875 67.7254 94.6875 68.3587C94.6875 68.992 94.174 69.5039 93.5423 69.5039C92.9107 69.5039 92.3988 68.992 92.3988 68.3587Z" fill="#7F726D"/>
<path id="Vector_302" d="M92.3793 68.3444C92.3793 67.7111 92.8912 67.1992 93.5245 67.1992C94.1561 67.1992 94.668 67.7111 94.668 68.3444C94.668 68.9777 94.1561 69.4895 93.5245 69.4895C92.8912 69.4895 92.3793 68.9777 92.3793 68.3444Z" fill="#7F726D"/>
<path id="Vector_303" d="M92.3617 68.3307C92.3617 67.6991 92.8736 67.1855 93.5052 67.1855C94.1385 67.1855 94.6504 67.6991 94.6504 68.3307C94.6504 68.964 94.1385 69.4775 93.5052 69.4775C92.8736 69.4775 92.3617 68.964 92.3617 68.3307Z" fill="#7F726D"/>
<path id="Vector_304" d="M92.348 68.3161C92.348 67.6844 92.8599 67.1709 93.4916 67.1709C94.1232 67.1709 94.6367 67.6844 94.6367 68.3161C94.6367 68.9493 94.1232 69.4629 93.4916 69.4629C92.8599 69.4629 92.348 68.9493 92.348 68.3161Z" fill="#7F726D"/>
<path id="Vector_305" d="M92.3266 68.3014C92.3266 67.6698 92.8384 67.1562 93.4717 67.1562C94.1034 67.1562 94.6152 67.6698 94.6152 68.3014C94.6152 68.9347 94.1034 69.4482 93.4717 69.4482C92.8384 69.4482 92.3266 68.9347 92.3266 68.3014Z" fill="#7F726D"/>
<path id="Vector_306" d="M92.309 68.2868C92.309 67.6551 92.8209 67.1416 93.4525 67.1416C94.0858 67.1416 94.5977 67.6551 94.5977 68.2868C94.5977 68.92 94.0858 69.4336 93.4525 69.4336C92.8209 69.4336 92.309 68.92 92.309 68.2868Z" fill="#7F726D"/>
<path id="Vector_307" d="M92.2953 68.2721C92.2953 67.6405 92.8072 67.127 93.4388 67.127C94.0705 67.127 94.584 67.6405 94.584 68.2721C94.584 68.9054 94.0705 69.4189 93.4388 69.4189C92.8072 69.4189 92.2953 68.9054 92.2953 68.2721Z" fill="#7F726D"/>
</g>
</svg>
