<svg width="24" height="25" viewBox="0 0 24 25" fill="none" xmlns="http://www.w3.org/2000/svg">
<g id="fi-rr-flower-tulip" clip-path="url(#clip0_12039_194667)">
<path id="Vector" d="M23.5335 15.2257C23.3264 14.9742 23.0607 14.7774 22.7597 14.6525C22.4588 14.5277 22.1318 14.4786 21.8075 14.5097C20.0651 14.6474 18.3739 15.1643 16.8523 16.0242C15.3306 16.8841 14.0153 18.0662 12.9985 19.4877V14.4107C14.395 14.1734 15.6627 13.4502 16.5777 12.3687C17.4926 11.2873 17.9958 9.91724 17.9985 8.50069C17.9985 5.70769 16.0555 3.34869 14.1545 1.40969C13.5781 0.84654 12.8043 0.53125 11.9985 0.53125C11.1926 0.53125 10.4188 0.84654 9.84246 1.40969C7.94146 3.34869 5.99846 5.70769 5.99846 8.50069C6.00109 9.91724 6.50433 11.2873 7.41926 12.3687C8.33419 13.4502 9.60192 14.1734 10.9985 14.4107V19.4877C9.98157 18.0662 8.66627 16.8841 7.14464 16.0242C5.623 15.1643 3.93181 14.6474 2.18946 14.5097C1.86515 14.4788 1.53821 14.5279 1.2373 14.6528C0.93638 14.7776 0.670674 14.9743 0.46346 15.2257C0.257573 15.4701 0.114219 15.761 0.0457547 16.0732C-0.0227098 16.3854 -0.0142312 16.7095 0.0704596 17.0177C2.10946 24.3557 11.5895 24.5007 11.9925 24.5007H12.0045C12.4045 24.5007 21.8885 24.3557 23.9275 17.0177C24.0117 16.7094 24.0198 16.3853 23.9512 16.0732C23.8826 15.761 23.7392 15.4702 23.5335 15.2257ZM7.99846 8.50069C7.99846 5.84669 11.3165 2.78169 11.3365 2.76469C10.9715 3.70069 8.69146 9.40069 10.9985 9.50069C11.2637 9.50069 11.518 9.39534 11.7056 9.2078C11.8931 9.02026 11.9985 8.76591 11.9985 8.50069C12.0739 6.72213 12.5012 4.97616 13.2555 3.36369C14.6865 4.89369 15.9985 6.65469 15.9985 8.50069C15.9985 9.56156 15.577 10.579 14.8269 11.3291C14.0767 12.0793 13.0593 12.5007 11.9985 12.5007C10.9376 12.5007 9.92018 12.0793 9.17003 11.3291C8.41989 10.579 7.99846 9.56156 7.99846 8.50069ZM2.00446 16.5007C3.80619 16.6466 5.53747 17.2656 7.02331 18.2951C8.50915 19.3246 9.69688 20.7281 10.4665 22.3637C7.96946 22.0177 3.19846 20.8007 2.00446 16.5007ZM13.5435 22.3617C14.3193 20.7306 15.5074 19.3303 16.9902 18.2991C18.4731 17.2678 20.1994 16.6414 21.9985 16.4817C20.8045 20.7837 16.0445 22.0117 13.5435 22.3617Z" fill="#49454F"/>
</g>
<defs>
<clipPath id="clip0_12039_194667">
<rect width="24" height="24" fill="white" transform="translate(0 0.5)"/>
</clipPath>
</defs>
</svg>
