<svg width="30" height="39" viewBox="0 0 30 39" fill="none" xmlns="http://www.w3.org/2000/svg">
<g id="Group 159">
<g id="Rectangle 1222" filter="url(#filter0_d_14353_31413)">
<rect x="4" y="4.5835" width="22" height="25.6667" rx="3" fill="#67B899"/>
</g>
<g id="Union">
<mask id="path-2-inside-1_14353_31413" fill="white">
<path fill-rule="evenodd" clip-rule="evenodd" d="M17.6296 1.95116C18.7588 2.29341 19.5807 3.34238 19.5807 4.58333C19.5807 6.10212 18.3495 7.33333 16.8307 7.33333H13.1641C11.6453 7.33333 10.4141 6.10212 10.4141 4.58333C10.4141 3.34238 11.236 2.29341 12.3652 1.95116C12.7075 0.821967 13.7564 0 14.9974 0C16.2383 0 17.2873 0.821967 17.6296 1.95116Z"/>
</mask>
<path fill-rule="evenodd" clip-rule="evenodd" d="M17.6296 1.95116C18.7588 2.29341 19.5807 3.34238 19.5807 4.58333C19.5807 6.10212 18.3495 7.33333 16.8307 7.33333H13.1641C11.6453 7.33333 10.4141 6.10212 10.4141 4.58333C10.4141 3.34238 11.236 2.29341 12.3652 1.95116C12.7075 0.821967 13.7564 0 14.9974 0C16.2383 0 17.2873 0.821967 17.6296 1.95116Z" fill="#67B899"/>
<path d="M17.6296 1.95116L16.1941 2.38625L16.4268 3.15398L17.1945 3.38667L17.6296 1.95116ZM12.3652 1.95116L12.8003 3.38667L13.568 3.15398L13.8007 2.38625L12.3652 1.95116ZM17.1945 3.38667C17.7089 3.54259 18.0807 4.0215 18.0807 4.58333H21.0807C21.0807 2.66326 19.8086 1.04422 18.0647 0.515646L17.1945 3.38667ZM18.0807 4.58333C18.0807 5.27369 17.5211 5.83333 16.8307 5.83333V8.83333C19.1779 8.83333 21.0807 6.93054 21.0807 4.58333H18.0807ZM16.8307 5.83333H13.1641V8.83333H16.8307V5.83333ZM13.1641 5.83333C12.4737 5.83333 11.9141 5.27369 11.9141 4.58333H8.91406C8.91406 6.93054 10.8169 8.83333 13.1641 8.83333V5.83333ZM11.9141 4.58333C11.9141 4.0215 12.2859 3.54259 12.8003 3.38667L11.9301 0.515646C10.1862 1.04422 8.91406 2.66326 8.91406 4.58333H11.9141ZM13.8007 2.38625C13.9567 1.87182 14.4356 1.5 14.9974 1.5V-1.5C13.0773 -1.5 11.4583 -0.227886 10.9297 1.51606L13.8007 2.38625ZM14.9974 1.5C15.5592 1.5 16.0381 1.87182 16.1941 2.38625L19.0651 1.51607C18.5365 -0.227886 16.9175 -1.5 14.9974 -1.5V1.5Z" fill="#FBFCFE" mask="url(#path-2-inside-1_14353_31413)"/>
</g>
<path id="Vector 48" d="M9.5 18.3332L12.6295 21.1497C13.4376 21.877 14.6787 21.8256 15.4238 21.0339L21.4167 14.6665" stroke="#FBFCFE" stroke-width="2" stroke-linecap="round"/>
</g>
<defs>
<filter id="filter0_d_14353_31413" x="0" y="4.5835" width="30" height="33.6665" filterUnits="userSpaceOnUse" color-interpolation-filters="sRGB">
<feFlood flood-opacity="0" result="BackgroundImageFix"/>
<feColorMatrix in="SourceAlpha" type="matrix" values="0 0 0 0 0 0 0 0 0 0 0 0 0 0 0 0 0 0 127 0" result="hardAlpha"/>
<feOffset dy="4"/>
<feGaussianBlur stdDeviation="2"/>
<feComposite in2="hardAlpha" operator="out"/>
<feColorMatrix type="matrix" values="0 0 0 0 0 0 0 0 0 0 0 0 0 0 0 0 0 0 0.05 0"/>
<feBlend mode="normal" in2="BackgroundImageFix" result="effect1_dropShadow_14353_31413"/>
<feBlend mode="normal" in="SourceGraphic" in2="effect1_dropShadow_14353_31413" result="shape"/>
</filter>
</defs>
</svg>
