<svg width="33" height="32" viewBox="0 0 33 32" fill="none" xmlns="http://www.w3.org/2000/svg">
<g id="Emotion-happy (&#229;&#188;&#128;&#229;&#191;&#131;)">
<path id="Union" fill-rule="evenodd" clip-rule="evenodd" d="M16.6247 1.33301C8.52449 1.33301 1.95801 7.89949 1.95801 15.9997C1.95801 24.0999 8.52449 30.6663 16.6247 30.6663C24.7249 30.6663 31.2913 24.0999 31.2913 15.9997C31.2913 7.89949 24.7249 1.33301 16.6247 1.33301ZM4.62467 15.9997C4.62467 9.37225 9.99725 3.99967 16.6247 3.99967C23.2521 3.99967 28.6247 9.37225 28.6247 15.9997C28.6247 22.6271 23.2521 27.9997 16.6247 27.9997C9.99725 27.9997 4.62467 22.6271 4.62467 15.9997ZM22.6247 13.9997V10.6663H19.958V13.9997H22.6247ZM13.2913 10.6663V13.9997H10.6247V10.6663H13.2913ZM10.7656 21.2627L11.9581 20.6665C10.7656 21.2627 10.7659 21.2633 10.7662 21.2639L10.7668 21.2652L10.7682 21.2679L10.7713 21.2741L10.7792 21.2894C10.7852 21.3009 10.7926 21.315 10.8015 21.3314C10.8194 21.3644 10.8432 21.407 10.8732 21.458C10.9332 21.5597 11.0183 21.6955 11.1305 21.8538C11.3538 22.1691 11.6904 22.5828 12.1556 22.9963C13.0974 23.8334 14.5677 24.6665 16.6248 24.6665C18.6818 24.6665 20.1522 23.8334 21.0939 22.9963C21.5592 22.5828 21.8958 22.1691 22.1191 21.8538C22.2312 21.6955 22.3164 21.5597 22.3764 21.458C22.4064 21.407 22.4302 21.3644 22.4481 21.3314C22.457 21.315 22.4644 21.3009 22.4704 21.2894L22.4783 21.2741L22.4814 21.2679L22.4828 21.2652L22.4834 21.2639C22.4837 21.2633 22.484 21.2627 21.2915 20.6665L22.484 21.2627L23.0803 20.0702L20.6952 18.8776L20.1035 20.061L20.1033 20.0614C20.1 20.0675 20.0919 20.0821 20.0789 20.1041C20.0529 20.1482 20.0079 20.2208 19.943 20.3124C19.8122 20.4972 19.6071 20.7501 19.3223 21.0032C18.764 21.4995 17.9011 21.9998 16.6248 21.9998C15.3485 21.9998 14.4856 21.4995 13.9273 21.0032C13.6425 20.7501 13.4374 20.4972 13.3066 20.3124C13.2417 20.2208 13.1966 20.1482 13.1706 20.1041C13.1577 20.0821 13.1496 20.0675 13.1463 20.0614L13.1461 20.061L12.5544 18.8776L10.1693 20.0702L10.7656 21.2627Z" fill="#EAE9EA"/>
</g>
</svg>
