<svg width="33" height="32" viewBox="0 0 33 32" fill="none" xmlns="http://www.w3.org/2000/svg">
<g id="Grinning-face-with-tightly-closed-eyes-open-mouth (&#229;&#188;&#160;&#229;&#152;&#180;&#233;&#151;&#173;&#231;&#156;&#188;&#231;&#172;&#145;)">
<path id="Union" fill-rule="evenodd" clip-rule="evenodd" d="M16.1247 1.33301C8.02449 1.33301 1.45801 7.89949 1.45801 15.9997C1.45801 24.0999 8.02449 30.6663 16.1247 30.6663C24.2249 30.6663 30.7913 24.0999 30.7913 15.9997C30.7913 7.89949 24.2249 1.33301 16.1247 1.33301ZM4.12467 15.9997C4.12467 9.37225 9.49725 3.99967 16.1247 3.99967C22.7521 3.99967 28.1247 9.37225 28.1247 15.9997C28.1247 22.6271 22.7521 27.9997 16.1247 27.9997C9.49725 27.9997 4.12467 22.6271 4.12467 15.9997ZM11.4579 19.333L10.2653 21.2626L11.4579 20.6663C10.2653 21.2626 10.2656 21.2632 10.2659 21.2638L10.2665 21.2651L10.2679 21.2678L10.271 21.274L10.2789 21.2893C10.2849 21.3008 10.2923 21.3149 10.3013 21.3313C10.3191 21.3643 10.3429 21.4069 10.373 21.4578C10.4329 21.5596 10.5181 21.6953 10.6303 21.8537C10.8536 22.169 11.1901 22.5827 11.6554 22.9962C12.5971 23.8333 14.0675 24.6663 16.1245 24.6663C18.1816 24.6663 19.652 23.8333 20.5937 22.9962C21.0589 22.5827 21.3955 22.169 21.6188 21.8537C21.731 21.6953 21.8162 21.5596 21.8761 21.4578C21.9061 21.4069 21.93 21.3643 21.9478 21.3313C21.9567 21.3149 21.9642 21.3008 21.9702 21.2893L21.978 21.274L21.9812 21.2678L21.9825 21.2651L21.9832 21.2638C21.9835 21.2632 21.9838 21.2626 20.7912 20.6663L21.9838 21.2626L20.7912 19.333H11.4579ZM23.3437 11.3332L21.3437 13.3332L23.3437 15.3332L21.4581 17.2188L18.5153 14.276V12.3904L21.4581 9.44759L23.3437 11.3332ZM13.734 12.3904L10.7912 9.44759L8.9056 11.3332L10.9056 13.3332L8.9056 15.3332L10.7912 17.2188L13.734 14.276V12.3904Z" fill="#EAE9EA"/>
</g>
</svg>
