<svg width="33" height="32" viewBox="0 0 33 32" fill="none" xmlns="http://www.w3.org/2000/svg">
<g id="Smiling-face-with-squinting-eyes (&#231;&#172;&#145;&#231;&#156;&#175;&#231;&#156;&#188;)">
<path id="Union" fill-rule="evenodd" clip-rule="evenodd" d="M16.3747 1.33301C8.27449 1.33301 1.70801 7.89949 1.70801 15.9997C1.70801 24.0999 8.27449 30.6663 16.3747 30.6663C24.4749 30.6663 31.0413 24.0999 31.0413 15.9997C31.0413 7.89949 24.4749 1.33301 16.3747 1.33301ZM4.37467 15.9997C4.37467 9.37225 9.74725 3.99967 16.3747 3.99967C23.0021 3.99967 28.3747 9.37225 28.3747 15.9997C28.3747 22.6271 23.0021 27.9997 16.3747 27.9997C9.74725 27.9997 4.37467 22.6271 4.37467 15.9997ZM10.5156 21.2624L11.7081 20.6661C10.5156 21.2624 10.5159 21.263 10.5162 21.2636L10.5168 21.2649L10.5182 21.2676L10.5213 21.2738L10.5292 21.2891C10.5352 21.3006 10.5426 21.3146 10.5515 21.3311C10.5694 21.3641 10.5932 21.4067 10.6232 21.4576C10.6832 21.5594 10.7683 21.6951 10.8805 21.8535C11.1038 22.1687 11.4404 22.5825 11.9056 22.996C12.8474 23.8331 14.3177 24.6661 16.3748 24.6661C18.4318 24.6661 19.9022 23.8331 20.8439 22.996C21.3092 22.5825 21.6458 22.1687 21.8691 21.8535C21.9812 21.6951 22.0664 21.5594 22.1264 21.4576C22.1564 21.4067 22.1802 21.3641 22.1981 21.3311C22.207 21.3146 22.2144 21.3006 22.2204 21.2891L22.2283 21.2738L22.2314 21.2676L22.2328 21.2649L22.2334 21.2636C22.2337 21.263 22.234 21.2624 21.0415 20.6661L22.234 21.2624L22.8303 20.0698L20.4452 18.8773L19.8535 20.0607L19.8533 20.061C19.85 20.0672 19.8419 20.0818 19.8289 20.1038C19.8029 20.1479 19.7579 20.2205 19.693 20.3121C19.5622 20.4968 19.3571 20.7498 19.0723 21.0029C18.514 21.4992 17.6511 21.9995 16.3748 21.9995C15.0985 21.9995 14.2356 21.4992 13.6773 21.0029C13.3925 20.7498 13.1874 20.4968 13.0566 20.3121C12.9917 20.2205 12.9466 20.1479 12.9206 20.1038C12.9077 20.0818 12.8996 20.0672 12.8963 20.061L12.8961 20.0607L12.3044 18.8773L9.91927 20.0698L10.5156 21.2624ZM8.49405 11.9597C9.00791 11.1375 10.0271 9.99967 11.708 9.99967C13.389 9.99967 14.4082 11.1375 14.922 11.9597C15.1908 12.3897 15.3731 12.809 15.4877 13.1148C15.5459 13.2699 15.5887 13.4014 15.618 13.4978C15.6327 13.5461 15.6441 13.5861 15.6523 13.6162L15.6625 13.654L15.6659 13.6671L15.6672 13.6722L15.6678 13.6744L15.668 13.6754C15.6681 13.6758 15.6682 13.6763 14.3947 13.9947L15.6682 13.6763L15.9916 14.9698L13.4046 15.6166L13.0826 14.3287L13.0811 14.3233L13.0773 14.3096C13.0746 14.3002 13.071 14.2877 13.0663 14.2724C13.0513 14.223 13.0265 14.1461 12.9909 14.0512C12.918 13.857 12.8086 13.6096 12.6607 13.373C12.3412 12.8618 12.0271 12.6663 11.708 12.6663C11.389 12.6663 11.0749 12.8618 10.7554 13.373C10.6075 13.6096 10.4981 13.857 10.4252 14.0512C10.3896 14.1461 10.3648 14.223 10.3498 14.2724C10.3423 14.297 10.3374 14.3143 10.335 14.3233L10.3335 14.3287L10.0115 15.6166L7.42448 14.9698L7.74786 13.6763L9.04138 13.9997C7.74786 13.6763 7.74797 13.6758 7.74809 13.6754L7.74834 13.6744L7.74889 13.6722L7.75018 13.6671L7.75359 13.654L7.76375 13.6162C7.77204 13.5861 7.78342 13.5461 7.79809 13.4978C7.82737 13.4014 7.87021 13.2699 7.92836 13.1148C8.04304 12.809 8.22528 12.3897 8.49405 11.9597ZM21.0414 9.99967C19.3605 9.99967 18.3412 11.1375 17.8274 11.9597C17.5586 12.3897 17.3764 12.809 17.2617 13.1148C17.2035 13.2699 17.1607 13.4014 17.1314 13.4978C17.1168 13.5461 17.1054 13.5861 17.0971 13.6162L17.0869 13.654L17.0835 13.6671L17.0822 13.6722L17.0817 13.6744L17.0814 13.6754C17.0813 13.6758 17.0812 13.6763 18.3747 13.9997L17.0812 13.6763L16.7578 14.9698L19.3449 15.6166L19.6668 14.3287L19.6683 14.3233C19.6708 14.3143 19.6757 14.297 19.6831 14.2724C19.6981 14.223 19.723 14.1461 19.7586 14.0512C19.8314 13.857 19.9408 13.6096 20.0887 13.373C20.4082 12.8618 20.7223 12.6663 21.0414 12.6663C21.3605 12.6663 21.6746 12.8618 21.9941 13.373C22.1419 13.6096 22.2514 13.857 22.3242 14.0512C22.3598 14.1461 22.3847 14.223 22.3997 14.2724C22.4071 14.297 22.412 14.3143 22.4145 14.3233L22.4159 14.3287L22.7379 15.6166L25.325 14.9698L25.0016 13.6763L23.7281 13.9947C25.0016 13.6763 25.0015 13.6758 25.0013 13.6754L25.0011 13.6744L25.0005 13.6722L24.9993 13.6671L24.9958 13.654L24.9857 13.6162C24.9774 13.5861 24.966 13.5461 24.9513 13.4978C24.9221 13.4014 24.8792 13.2699 24.8211 13.1148C24.7064 12.809 24.5242 12.3897 24.2554 11.9597C23.7415 11.1375 22.7223 9.99967 21.0414 9.99967Z" fill="#EAE9EA"/>
</g>
</svg>
