<svg width="24" height="25" viewBox="0 0 24 25" fill="none" xmlns="http://www.w3.org/2000/svg">
<g id="fi-rr-comment-info" clip-path="url(#clip0_12039_194677)">
<path id="Vector" d="M13.5015 7.00029C13.5015 7.39811 13.3435 7.77964 13.0622 8.06095C12.7809 8.34225 12.3993 8.50029 12.0015 8.50029C11.6037 8.50029 11.2222 8.34225 10.9409 8.06095C10.6596 7.77964 10.5015 7.39811 10.5015 7.00029C10.5015 6.60246 10.6596 6.22093 10.9409 5.93963C11.2222 5.65832 11.6037 5.50029 12.0015 5.50029C12.3993 5.50029 12.7809 5.65832 13.0622 5.93963C13.3435 6.22093 13.5015 6.60246 13.5015 7.00029ZM24.0015 19.5003V12.8403C24.0388 9.75773 22.9086 6.77518 20.8378 4.49146C18.7671 2.20774 15.909 0.791924 12.8375 0.528287C11.1232 0.408344 9.40305 0.658026 7.79355 1.26044C6.18406 1.86285 4.72272 2.80394 3.50843 4.02004C2.29414 5.23613 1.35522 6.69885 0.755193 8.30924C0.155166 9.91963 -0.0919656 11.6401 0.0305181 13.3543C0.472518 19.7083 6.08352 24.5003 13.0845 24.5003H19.0015C20.3271 24.4987 21.598 23.9714 22.5353 23.0341C23.4726 22.0967 23.9999 20.8259 24.0015 19.5003ZM12.7015 2.52429C15.268 2.75132 17.6534 3.9412 19.3786 5.85484C21.1038 7.76849 22.0408 10.2641 22.0015 12.8403V19.5003C22.0015 20.2959 21.6855 21.059 21.1228 21.6216C20.5602 22.1842 19.7972 22.5003 19.0015 22.5003H13.0845C7.05052 22.5003 2.40152 18.6003 2.02652 13.2163C1.92807 11.8449 2.11349 10.4679 2.5712 9.17136C3.02891 7.87483 3.74907 6.68662 4.68669 5.68096C5.62431 4.6753 6.75924 3.8738 8.02059 3.32653C9.28193 2.77927 10.6426 2.498 12.0175 2.50029C12.2445 2.50029 12.4735 2.50929 12.7015 2.52429ZM14.0015 18.5003V12.5003C14.0015 11.9699 13.7908 11.4611 13.4157 11.0861C13.0407 10.711 12.532 10.5003 12.0015 10.5003H11.0015C10.7363 10.5003 10.4819 10.6056 10.2944 10.7932C10.1069 10.9807 10.0015 11.2351 10.0015 11.5003C10.0015 11.7655 10.1069 12.0199 10.2944 12.2074C10.4819 12.3949 10.7363 12.5003 11.0015 12.5003H12.0015V18.5003C12.0015 18.7655 12.1069 19.0199 12.2944 19.2074C12.4819 19.3949 12.7363 19.5003 13.0015 19.5003C13.2667 19.5003 13.5211 19.3949 13.7086 19.2074C13.8962 19.0199 14.0015 18.7655 14.0015 18.5003Z" fill="#49454F"/>
</g>
<defs>
<clipPath id="clip0_12039_194677">
<rect width="24" height="24" fill="white" transform="translate(0 0.5)"/>
</clipPath>
</defs>
</svg>
