<svg width="32" height="32" viewBox="0 0 32 32" fill="none" xmlns="http://www.w3.org/2000/svg">
<g id="Icons/Picture-one (&#229;&#155;&#190;&#231;&#137;&#135;)">
<path id="Vector" d="M26 4H6C4.89543 4 4 4.89543 4 6V26C4 27.1046 4.89543 28 6 28H26C27.1046 28 28 27.1046 28 26V6C28 4.89543 27.1046 4 26 4Z" stroke="#333333" stroke-width="2" stroke-linecap="round" stroke-linejoin="round"/>
<path id="Vector_2" d="M11.9993 15.3337C13.8403 15.3337 15.3327 13.8413 15.3327 12.0003C15.3327 10.1594 13.8403 8.66699 11.9993 8.66699C10.1584 8.66699 8.66602 10.1594 8.66602 12.0003C8.66602 13.8413 10.1584 15.3337 11.9993 15.3337Z" stroke="#333333" stroke-width="2" stroke-linecap="round" stroke-linejoin="round"/>
<path id="Vector_3" d="M28 23.9997L20.6667 17.333L14 23.333L9.33333 19.333L4 23.333" stroke="#333333" stroke-width="2" stroke-linecap="round" stroke-linejoin="round"/>
</g>
</svg>
