<svg width="24" height="25" viewBox="0 0 24 25" fill="none" xmlns="http://www.w3.org/2000/svg">
<g id="fi-rr-flower" clip-path="url(#clip0_11721_194982)">
<path id="Vector" d="M11.9991 16.5C10.9382 16.5 9.92083 16.0785 9.17068 15.3284C8.42054 14.5783 7.99911 13.5608 7.99911 12.5C7.99911 11.4391 8.42054 10.4217 9.17068 9.67155C9.92083 8.9214 10.9382 8.49998 11.9991 8.49998C13.06 8.49998 14.0774 8.9214 14.8275 9.67155C15.5777 10.4217 15.9991 11.4391 15.9991 12.5C15.9991 13.5608 15.5777 14.5783 14.8275 15.3284C14.0774 16.0785 13.06 16.5 11.9991 16.5ZM11.9991 10.5C11.4687 10.5 10.96 10.7107 10.5849 11.0858C10.2098 11.4608 9.99911 11.9695 9.99911 12.5C9.99911 13.0304 10.2098 13.5391 10.5849 13.9142C10.96 14.2893 11.4687 14.5 11.9991 14.5C12.5295 14.5 13.0383 14.2893 13.4133 13.9142C13.7884 13.5391 13.9991 13.0304 13.9991 12.5C13.9991 11.9695 13.7884 11.4608 13.4133 11.0858C13.0383 10.7107 12.5295 10.5 11.9991 10.5ZM11.9991 24.5C10.9083 24.4989 9.84764 24.1415 8.97852 23.4823C8.10939 22.8231 7.47932 21.8981 7.18411 20.848C6.12878 21.081 5.02661 20.971 4.03817 20.534C3.04973 20.0969 2.22665 19.3557 1.68885 18.4182C1.15105 17.4808 0.926623 16.3961 1.04826 15.3223C1.1699 14.2484 1.63126 13.2414 2.36511 12.448C-1.03489 8.93698 2.37411 2.84797 7.19911 4.09897C7.51034 3.06813 8.14516 2.16487 9.00964 1.52285C9.87411 0.880837 10.9223 0.53418 11.9991 0.53418C13.0759 0.53418 14.1241 0.880837 14.9886 1.52285C15.8531 2.16487 16.4879 3.06813 16.7991 4.09897C21.6991 2.88297 24.9991 8.91198 21.6281 12.491C25.0361 16.029 21.6391 21.933 16.8141 20.848C16.5189 21.8981 15.8888 22.8231 15.0197 23.4823C14.1506 24.1415 13.0899 24.4989 11.9991 24.5ZM7.99911 18.5C8.26433 18.5 8.51868 18.6053 8.70622 18.7929C8.89375 18.9804 8.99911 19.2348 8.99911 19.5C8.99911 20.2956 9.31518 21.0587 9.87779 21.6213C10.4404 22.1839 11.2035 22.5 11.9991 22.5C12.7948 22.5 13.5578 22.1839 14.1204 21.6213C14.683 21.0587 14.9991 20.2956 14.9991 19.5C14.999 19.3238 15.0455 19.1508 15.1338 18.9983C15.2221 18.8459 15.3491 18.7195 15.5019 18.6319C15.6548 18.5443 15.828 18.4986 16.0042 18.4995C16.1804 18.5004 16.3532 18.5478 16.5051 18.637C19.9711 20.312 22.9051 15.455 19.5211 13.378C19.365 13.2906 19.2349 13.1632 19.1444 13.0089C19.0539 12.8546 19.0062 12.6789 19.0062 12.5C19.0062 12.3211 19.0539 12.1454 19.1444 11.991C19.2349 11.8367 19.365 11.7093 19.5211 11.622C22.8341 9.61298 20.0431 4.40297 16.5021 6.36797C16.3499 6.45658 16.1769 6.5034 16.0008 6.50369C15.8246 6.50399 15.6515 6.45775 15.499 6.36966C15.3465 6.28157 15.2199 6.15475 15.1321 6.00203C15.0443 5.84931 14.9985 5.67612 14.9991 5.49997C14.9991 4.70433 14.683 3.94126 14.1204 3.37865C13.5578 2.81605 12.7948 2.49997 11.9991 2.49997C11.2035 2.49997 10.4404 2.81605 9.87779 3.37865C9.31518 3.94126 8.99911 4.70433 8.99911 5.49997C8.99946 5.67568 8.95351 5.84837 8.86588 6.00067C8.77825 6.15296 8.65205 6.27948 8.49997 6.36748C8.34789 6.45548 8.17531 6.50186 7.99961 6.50195C7.8239 6.50204 7.65128 6.45583 7.49911 6.36797C3.99911 4.40797 1.13711 9.57998 4.47711 11.57C4.63324 11.6575 4.76323 11.785 4.85371 11.9394C4.94419 12.0938 4.99188 12.2695 4.99188 12.4485C4.99188 12.6274 4.94419 12.8032 4.85371 12.9576C4.76323 13.112 4.63324 13.2395 4.47711 13.327C1.12911 15.44 3.96311 20.3 7.49311 18.637C7.6466 18.5471 7.82126 18.4998 7.99911 18.5Z" fill="#FBFCFE"/>
</g>
<defs>
<clipPath id="clip0_11721_194982">
<rect width="24" height="24" fill="white" transform="translate(0 0.5)"/>
</clipPath>
</defs>
</svg>
